<svg version="1.1" id="Icons" xmlns="http://www.w3.org/2000/svg" xmlns:xlink="http://www.w3.org/1999/xlink" x="0px" y="0px"
	 viewBox="0 0 313.92 313.92" style="enable-background:new 0 0 313.92 313.92;" xml:space="preserve">
<style type="text/css">
	.st0{fill:#FF9838;}
	.st1{fill:#B6BBBF;}
	.st2{fill:#888A8C;}
	.st3{fill:#00AEBD;}
</style>
<g>
	<g>
		<g>
			<path class="st0" d="M157.176,53.332c-3.314,0-6-2.687-6-6V5.933c0-3.313,2.686-6,6-6c3.313,0,6,2.687,6,6v41.399
				C163.176,50.646,160.489,53.332,157.176,53.332z"/>
		</g>
		<g>
			<path class="st0" d="M157.176,313.832c-3.314,0-6-2.686-6-6v-40.399c0-3.313,2.686-6,6-6c3.313,0,6,2.687,6,6v40.399
				C163.176,311.146,160.489,313.832,157.176,313.832z"/>
		</g>
	</g>
	<g>
		<g>
			<path class="st0" d="M79.712,85.419c-1.536,0-3.071-0.585-4.243-1.757L46.196,54.388c-2.343-2.343-2.343-6.142,0-8.485
				c2.343-2.343,6.142-2.344,8.485,0l29.273,29.274c2.343,2.343,2.343,6.142,0,8.485C82.783,84.833,81.247,85.419,79.712,85.419z"/>
		</g>
		<g>
			<path class="st0" d="M263.914,269.62c-1.536,0-3.071-0.586-4.243-1.757l-28.567-28.567c-2.343-2.343-2.343-6.142,0-8.485
				c2.343-2.343,6.143-2.343,8.485,0l28.567,28.567c2.343,2.343,2.343,6.142,0,8.485C266.985,269.034,265.449,269.62,263.914,269.62
				z"/>
		</g>
	</g>
	<g>
		<g>
			<path class="st0" d="M47.625,162.882H6.226c-3.313,0-6-2.686-6-6c0-3.313,2.687-6,6-6h41.399c3.313,0,6,2.687,6,6
				C53.625,160.196,50.939,162.882,47.625,162.882z"/>
		</g>
		<g>
			<path class="st0" d="M308.125,162.882h-40.399c-3.314,0-6-2.686-6-6c0-3.313,2.686-6,6-6h40.399c3.314,0,6,2.687,6,6
				C314.125,160.196,311.439,162.882,308.125,162.882z"/>
		</g>
	</g>
	<g>
		<g>
			<path class="st0" d="M50.438,269.62c-1.536,0-3.071-0.586-4.243-1.757c-2.343-2.343-2.343-6.142,0-8.485l29.273-29.274
				c2.343-2.343,6.142-2.343,8.485,0c2.343,2.343,2.343,6.142,0,8.485l-29.273,29.274C53.51,269.034,51.974,269.62,50.438,269.62z"
				/>
		</g>
		<g>
			<path class="st0" d="M235.347,84.711c-1.536,0-3.071-0.585-4.243-1.757c-2.343-2.343-2.343-6.142,0-8.485l28.567-28.567
				c2.343-2.343,6.142-2.344,8.485,0c2.343,2.343,2.343,6.142,0,8.485l-28.567,28.566C238.418,84.126,236.882,84.711,235.347,84.711
				z"/>
		</g>
	</g>
	<g>
		<path class="st0" d="M157.46,78.144c43.734,0,79.313,35.58,79.313,79.314s-35.58,79.314-79.313,79.314
			c-43.734,0-79.314-35.58-79.314-79.314S113.727,78.144,157.46,78.144 M157.46,66.144c-50.431,0-91.314,40.883-91.314,91.314
			c0,50.431,40.883,91.314,91.314,91.314c50.431,0,91.313-40.883,91.313-91.314C248.774,107.026,207.892,66.144,157.46,66.144
			L157.46,66.144z"/>
	</g>
</g>
</svg>
