<svg version="1.1" id="Icons" xmlns="http://www.w3.org/2000/svg" xmlns:xlink="http://www.w3.org/1999/xlink" x="0px" y="0px"
	 viewBox="0 0 313.92 313.92" style="enable-background:new 0 0 313.92 313.92;" xml:space="preserve">
<style type="text/css">
	.st0{fill:#FF9838;}
	.st1{fill:#B6BBBF;}
	.st2{fill:#888A8C;}
	.st3{fill:#00AEBD;}
</style>
<g>
	<g>
		<path class="st0" d="M157.176,53.332c-3.314,0-6-2.687-6-6V5.933c0-3.313,2.686-6,6-6c3.313,0,6,2.687,6,6v41.399
			C163.176,50.646,160.489,53.332,157.176,53.332z"/>
	</g>
	<g>
		<path class="st0" d="M157.176,313.832c-3.314,0-6-2.686-6-6v-40.399c0-3.313,2.686-6,6-6c3.313,0,6,2.687,6,6v40.399
			C163.176,311.146,160.489,313.832,157.176,313.832z"/>
	</g>
	<g>
		<path class="st0" d="M79.712,85.419c-1.536,0-3.071-0.585-4.243-1.757L46.196,54.388c-2.343-2.343-2.343-6.142,0-8.485
			c2.343-2.343,6.142-2.344,8.485,0l29.273,29.274c2.343,2.343,2.343,6.142,0,8.485C82.783,84.833,81.247,85.419,79.712,85.419z"/>
	</g>
	<g>
		<path class="st0" d="M263.914,269.62c-1.536,0-3.071-0.586-4.243-1.757l-28.567-28.567c-2.343-2.343-2.343-6.142,0-8.485
			c2.343-2.343,6.143-2.343,8.485,0l28.567,28.567c2.343,2.343,2.343,6.142,0,8.485C266.985,269.034,265.449,269.62,263.914,269.62z
			"/>
	</g>
	<g>
		<path class="st0" d="M47.625,162.882H6.226c-3.314,0-6-2.686-6-6c0-3.313,2.686-6,6-6h41.399c3.313,0,6,2.687,6,6
			C53.625,160.196,50.939,162.882,47.625,162.882z"/>
	</g>
	<g>
		<path class="st0" d="M50.438,269.62c-1.536,0-3.071-0.586-4.243-1.757c-2.343-2.343-2.343-6.142,0-8.485l29.274-29.274
			c2.343-2.343,6.142-2.343,8.485,0c2.343,2.343,2.343,6.142,0,8.485l-29.273,29.274C53.51,269.034,51.974,269.62,50.438,269.62z"/>
	</g>
	<g>
		<path class="st0" d="M235.347,84.711c-1.536,0-3.071-0.585-4.243-1.757c-2.343-2.343-2.343-6.142,0-8.485l28.567-28.567
			c2.343-2.343,6.142-2.344,8.485,0c2.343,2.343,2.343,6.142,0,8.485l-28.567,28.566C238.418,84.126,236.882,84.711,235.347,84.711z
			"/>
	</g>
</g>
<path class="st0" d="M222.11,203.317c-14.388,20.224-37.995,33.454-64.65,33.454c-43.734,0-79.314-35.58-79.314-79.314
	s35.58-79.314,79.314-79.314c31.104,0,58.069,18.006,71.058,44.134c2.496-0.485,5.06-0.745,7.672-0.745
	c1.819,0,3.623,0.136,5.406,0.375c-13.864-32.771-46.314-55.765-84.135-55.765c-50.431,0-91.314,40.883-91.314,91.314
	c0,50.431,40.883,91.314,91.314,91.314c33.714,0,63.157-18.273,78.975-45.454H222.11z"/>
<g>
	<g>
		<path class="st1" d="M236.19,127.533c9.964,0,19.48,4.286,26.108,11.759l4.035,4.549l6.056-0.564
			c0.905-0.084,1.741-0.125,2.557-0.125c14.934,0,27.083,12.149,27.083,27.083c0,14.933-12.149,27.083-27.083,27.083h-89.493
			c-8.398,0-15.229-6.832-15.229-15.229c0-8.397,6.831-15.229,15.229-15.229c0.811,0,1.643,0.068,2.473,0.203l11.939,1.94
			l1.845-11.955c1.255-8.134,5.399-15.601,11.669-21.025C219.707,130.548,227.808,127.533,236.19,127.533 M236.19,115.533
			c-23.446,0-42.872,17.208-46.34,39.684c-1.432-0.232-2.9-0.358-4.397-0.358c-15.038,0-27.229,12.191-27.229,27.229
			c0,15.039,12.191,27.229,27.229,27.229h89.493c21.585,0,39.083-17.498,39.083-39.083c0-21.585-17.498-39.083-39.083-39.083
			c-1.238,0-2.461,0.064-3.67,0.177C262.685,121.644,250.154,115.533,236.19,115.533L236.19,115.533z"/>
	</g>
</g>
</svg>
