<svg version="1.1" id="Icons" xmlns="http://www.w3.org/2000/svg" xmlns:xlink="http://www.w3.org/1999/xlink" x="0px" y="0px"
	 viewBox="0 0 313.92 313.92" style="enable-background:new 0 0 313.92 313.92;" xml:space="preserve">
<style type="text/css">
	.st0{fill:#FF9838;}
	.st1{fill:#B6BBBF;}
	.st2{fill:#888A8C;}
	.st3{fill:#00AEBD;}
</style>
<g>
	<g>
		<path class="st0" d="M157.176,53.332c-3.314,0-6-2.687-6-6V5.933c0-3.313,2.686-6,6-6c3.313,0,6,2.687,6,6v41.399
			C163.176,50.646,160.489,53.332,157.176,53.332z"/>
	</g>
	<g>
		<path class="st0" d="M79.712,85.419c-1.536,0-3.071-0.586-4.243-1.757L46.196,54.388c-2.343-2.343-2.343-6.142,0-8.485
			c2.343-2.343,6.143-2.343,8.485,0l29.274,29.274c2.343,2.343,2.343,6.142,0,8.485C82.784,84.833,81.248,85.419,79.712,85.419z"/>
	</g>
	<g>
		<path class="st0" d="M47.625,162.882H6.226c-3.313,0-6-2.686-6-6c0-3.313,2.687-6,6-6h41.399c3.313,0,6,2.687,6,6
			C53.625,160.196,50.939,162.882,47.625,162.882z"/>
	</g>
	<g>
		<path class="st0" d="M50.438,269.62c-1.536,0-3.071-0.586-4.243-1.757c-2.343-2.343-2.343-6.142,0-8.485l29.274-29.274
			c2.343-2.343,6.143-2.343,8.485,0c2.343,2.343,2.343,6.142,0,8.485l-29.274,29.274C53.51,269.034,51.974,269.62,50.438,269.62z"/>
	</g>
	<g>
		<path class="st0" d="M235.347,84.711c-1.535,0-3.071-0.586-4.242-1.757c-2.344-2.343-2.344-6.142,0-8.485l28.566-28.567
			c2.342-2.343,6.143-2.343,8.484,0c2.344,2.343,2.344,6.142,0,8.485l-28.566,28.566C238.418,84.126,236.882,84.711,235.347,84.711z
			"/>
	</g>
	<path class="st0" d="M110.748,225.062c0-1.157,0.07-2.297,0.196-3.421c-19.854-14.429-32.798-37.817-32.798-64.183
		c0-43.734,35.58-79.314,79.314-79.314c40.661,0,74.254,30.761,78.778,70.23c4.541,2.419,8.761,5.459,12.535,9.057
		c-0.014-50.419-40.891-91.287-91.313-91.287c-50.431,0-91.314,40.883-91.314,91.314c0,34.442,19.072,64.426,47.228,79.979
		C111.691,233.65,110.748,229.465,110.748,225.062z"/>
</g>
<g>
	<g>
		<path class="st1" d="M209.475,147.664c14.561,0,28.466,6.262,38.15,17.18l4.035,4.55l6.055-0.564
			c1.344-0.125,2.592-0.186,3.816-0.186c22.33,0,40.497,18.167,40.497,40.497c0,22.33-18.167,40.497-40.497,40.497H141.323
			c-13.551,0-24.575-11.024-24.575-24.575s11.024-24.575,24.575-24.575c1.31,0,2.649,0.11,3.982,0.327l11.939,1.939l1.844-11.955
			c1.835-11.891,7.89-22.803,17.051-30.728C185.388,152.07,197.227,147.664,209.475,147.664 M209.475,135.664
			c-31.494,0-57.587,23.115-62.245,53.305c-1.923-0.312-3.895-0.482-5.906-0.482c-20.2,0-36.575,16.376-36.575,36.575
			s16.375,36.575,36.575,36.575h120.208c28.993,0,52.497-23.503,52.497-52.497c0-28.993-23.504-52.497-52.497-52.497
			c-1.663,0-3.306,0.086-4.93,0.238C245.064,143.872,228.232,135.664,209.475,135.664L209.475,135.664z"/>
	</g>
</g>
</svg>
