<svg version="1.1" id="Icons" xmlns="http://www.w3.org/2000/svg" xmlns:xlink="http://www.w3.org/1999/xlink" x="0px" y="0px"
	 viewBox="0 0 313.92 313.92" style="enable-background:new 0 0 313.92 313.92;" xml:space="preserve">
<style type="text/css">
	.st0{fill:#FF9838;}
	.st1{fill:#B6BBBF;}
	.st2{fill:#888A8C;}
	.st3{fill:#00AEBD;}
</style>
<g>
	<g>
		<g>
			<path class="st1" d="M52.854,237.023c9.484,0,17.723,7.05,19.166,16.399l1.844,11.954l11.939-1.939
				c0.347-0.056,0.69-0.085,1.021-0.085c3.436,0,6.231,2.795,6.231,6.23c0,3.436-2.795,6.23-6.231,6.23H26.906
				c-7.812,0-14.166-6.355-14.166-14.167s6.354-14.166,14.166-14.166c0.422,0,0.861,0.022,1.344,0.067l6.055,0.564l4.036-4.55
				C42.026,239.406,47.316,237.023,52.854,237.023 M52.854,225.023c-9.35,0-17.738,4.091-23.49,10.576
				c-0.809-0.075-1.628-0.119-2.457-0.119c-14.451,0-26.166,11.715-26.166,26.166c0,14.452,11.715,26.167,26.166,26.167h59.917
				c10.068,0,18.231-8.162,18.231-18.23c0-10.068-8.162-18.23-18.231-18.23c-1.003,0-1.985,0.084-2.944,0.24
				C81.558,236.544,68.552,225.023,52.854,225.023L52.854,225.023z"/>
		</g>
	</g>
</g>
<g>
	<g>
		<path class="st0" d="M157.176,53.332c-3.313,0-6-2.687-6-6V5.933c0-3.313,2.687-6,6-6c3.313,0,6,2.687,6,6v41.399
			C163.176,50.646,160.489,53.332,157.176,53.332z"/>
	</g>
	<g>
		<path class="st0" d="M157.176,313.832c-3.313,0-6-2.686-6-6v-40.399c0-3.313,2.687-6,6-6c3.313,0,6,2.687,6,6v40.399
			C163.176,311.146,160.489,313.832,157.176,313.832z"/>
	</g>
	<g>
		<path class="st0" d="M79.712,85.419c-1.536,0-3.071-0.585-4.243-1.757L46.195,54.388c-2.343-2.343-2.343-6.142,0.001-8.485
			c2.343-2.343,6.142-2.343,8.485,0l29.273,29.274c2.343,2.343,2.343,6.142-0.001,8.485C82.783,84.833,81.247,85.419,79.712,85.419z
			"/>
	</g>
	<g>
		<path class="st0" d="M263.914,269.62c-1.535,0-3.071-0.586-4.242-1.757l-28.567-28.567c-2.344-2.343-2.344-6.142,0-8.485
			c2.342-2.343,6.142-2.343,8.484,0l28.567,28.567c2.344,2.343,2.344,6.142,0,8.485C266.985,269.034,265.449,269.62,263.914,269.62z
			"/>
	</g>
	<g>
		<path class="st0" d="M47.626,162.882H6.227c-3.313,0-6-2.686-6-6c0-3.313,2.687-6,6-6h41.399c3.313,0,6,2.687,6,6
			C53.626,160.196,50.939,162.882,47.626,162.882z"/>
	</g>
	<g>
		<path class="st0" d="M235.347,84.711c-1.536,0-3.071-0.586-4.243-1.757c-2.343-2.343-2.343-6.142,0.001-8.485l28.567-28.567
			c2.342-2.343,6.142-2.342,8.485,0c2.343,2.343,2.343,6.142-0.001,8.485l-28.567,28.566
			C238.418,84.126,236.882,84.711,235.347,84.711z"/>
	</g>
	<g>
		<path class="st0" d="M222.11,203.317c-14.388,20.224-37.995,33.454-64.649,33.454c-43.734,0-79.314-35.58-79.314-79.314
			s35.58-79.314,79.314-79.314c31.104,0,58.068,18.006,71.058,44.134c2.496-0.485,5.061-0.745,7.672-0.745
			c1.819,0,3.622,0.136,5.405,0.375c-13.863-32.771-46.314-55.765-84.135-55.765c-50.432,0-91.314,40.883-91.314,91.314
			c0,50.431,40.883,91.314,91.314,91.314c33.714,0,63.156-18.273,78.975-45.454H222.11z"/>
		<g>
			<g>
				<path class="st1" d="M236.19,127.533c9.964,0,19.48,4.286,26.108,11.759l4.035,4.549l6.055-0.564
					c0.905-0.084,1.741-0.125,2.557-0.125c14.934,0,27.083,12.149,27.083,27.083c0,14.933-12.149,27.083-27.083,27.083h-89.492
					c-8.397,0-15.229-6.832-15.229-15.229c0-8.397,6.832-15.229,15.229-15.229c0.811,0,1.643,0.068,2.473,0.203l11.939,1.94
					l1.845-11.955c1.255-8.134,5.399-15.601,11.669-21.025C219.707,130.548,227.809,127.533,236.19,127.533 M236.19,115.533
					c-23.446,0-42.873,17.208-46.34,39.684c-1.433-0.232-2.9-0.358-4.398-0.358c-15.039,0-27.229,12.191-27.229,27.229
					c0,15.039,12.19,27.229,27.229,27.229h89.492c21.585,0,39.083-17.498,39.083-39.083c0-21.585-17.498-39.083-39.083-39.083
					c-1.238,0-2.461,0.064-3.67,0.177C262.685,121.644,250.154,115.533,236.19,115.533L236.19,115.533z"/>
			</g>
		</g>
	</g>
</g>
</svg>
