<svg version="1.1" id="Icons" xmlns="http://www.w3.org/2000/svg" xmlns:xlink="http://www.w3.org/1999/xlink" x="0px" y="0px"
	 viewBox="0 0 313.92 313.92" style="enable-background:new 0 0 313.92 313.92;" xml:space="preserve">
<style type="text/css">
	.st0{fill:#FF9838;}
	.st1{fill:#B6BBBF;}
	.st2{fill:#888A8C;}
	.st3{fill:#00AEBD;}
</style>
<g>
	<g>
		<path class="st0" d="M157.328,53.332c-3.313,0-6-2.687-6-6V5.933c0-3.313,2.687-6,6-6c3.314,0,6,2.687,6,6v41.399
			C163.328,50.646,160.642,53.332,157.328,53.332z"/>
	</g>
</g>
<g>
	<g>
		<path class="st0" d="M79.864,85.419c-1.536,0-3.071-0.585-4.243-1.757L46.348,54.388c-2.343-2.343-2.343-6.142,0.001-8.485
			c2.343-2.343,6.143-2.343,8.485,0l29.273,29.274c2.343,2.343,2.343,6.142-0.001,8.485C82.936,84.833,81.399,85.419,79.864,85.419z
			"/>
	</g>
</g>
<g>
	<g>
		<path class="st0" d="M47.777,162.882H6.378c-3.314,0-6-2.686-6-6c0-3.313,2.687-6,6-6h41.399c3.313,0,6,2.687,6,6
			C53.777,160.196,51.091,162.882,47.777,162.882z"/>
	</g>
</g>
<g>
	<g>
		<path class="st0" d="M235.499,84.711c-1.535,0-3.071-0.586-4.242-1.757c-2.344-2.343-2.344-6.142,0-8.485l28.566-28.567
			c2.342-2.343,6.143-2.343,8.484,0c2.344,2.343,2.344,6.142,0,8.485l-28.566,28.566C238.57,84.126,237.034,84.711,235.499,84.711z"
			/>
	</g>
</g>
<path class="st0" d="M157.612,66.144c-50.431,0-91.314,40.883-91.314,91.314c0,32.759,17.254,61.483,43.166,77.596h31.734
	c-35.883-7.582-62.9-39.488-62.9-77.596c0-43.734,35.58-79.314,79.314-79.314c43.734,0,79.314,35.58,79.314,79.314
	c0,38.107-27.018,70.014-62.901,77.596h31.734c25.913-16.112,43.167-44.837,43.167-77.596
	C248.927,107.026,208.044,66.144,157.612,66.144z"/>
<g>
	<path class="st1" d="M282.653,241.053H32.546c-3.313,0-6-2.686-6-6c0-3.314,2.687-6,6-6h250.107c3.314,0,6,2.686,6,6
		C288.653,238.367,285.967,241.053,282.653,241.053z"/>
</g>
<g>
	<path class="st1" d="M282.653,163.458H137.267c-3.314,0-6-2.687-6-6c0-3.314,2.686-6,6-6h145.387c3.314,0,6,2.686,6,6
		C288.653,160.771,285.967,163.458,282.653,163.458z"/>
</g>
<g>
	<path class="st1" d="M177.3,202.237H32.546c-3.313,0-6-2.687-6-6c0-3.314,2.687-6,6-6H177.3c3.313,0,6,2.686,6,6
		C183.3,199.551,180.613,202.237,177.3,202.237z"/>
</g>
</svg>
