<svg version="1.1" id="Icons" xmlns="http://www.w3.org/2000/svg" xmlns:xlink="http://www.w3.org/1999/xlink" x="0px" y="0px"
	 viewBox="0 0 313.92 313.92" style="enable-background:new 0 0 313.92 313.92;" xml:space="preserve">
<style type="text/css">
	.st0{fill:#FF9838;}
	.st1{fill:#B6BBBF;}
	.st2{fill:#888A8C;}
	.st3{fill:#00AEBD;}
</style>
<g>
	<path class="st0" d="M91.658,65.527c-3.313,0-6-2.687-6-6V32.322c0-3.313,2.687-6,6-6s6,2.687,6,6v27.205
		C97.658,62.84,94.972,65.527,91.658,65.527z"/>
	<path class="st0" d="M50.482,82.582c-1.536,0-3.071-0.586-4.243-1.757L27.003,61.588c-2.343-2.343-2.343-6.142,0-8.485
		c2.343-2.343,6.143-2.343,8.485,0l19.236,19.236c2.343,2.343,2.343,6.142,0,8.485C53.554,81.996,52.018,82.582,50.482,82.582z"/>
	<path class="st0" d="M33.427,123.758H6.223c-3.313,0-6-2.687-6-6c0-3.313,2.687-6,6-6h27.204c3.313,0,6,2.687,6,6
		C39.427,121.071,36.74,123.758,33.427,123.758z"/>
	<path class="st0" d="M61.155,152.059c3.446-0.979,7.077-1.514,10.832-1.514c2.119,0,4.279,0.176,6.421,0.524l5.97,0.97l0.167-1.085
		c-15.214-3.276-26.653-16.828-26.653-33.006c0-18.619,15.147-33.767,33.767-33.767c10.375,0,19.668,4.707,25.867,12.093
		c3.427-2.229,7.03-4.152,10.763-5.767c-8.349-11.127-21.648-18.327-36.629-18.327c-25.276,0-45.767,20.491-45.767,45.767
		C45.892,131.504,51.79,143.679,61.155,152.059z"/>
</g>
<g>
	<g>
		<path class="st1" d="M157.176,90.517c19.059,0,37.258,8.195,49.932,22.484l4.035,4.55l6.055-0.564
			c1.773-0.165,3.425-0.246,5.049-0.246c29.566,0,53.621,24.054,53.621,53.621c0,29.566-24.054,53.621-53.621,53.621H71.987
			c-18.593,0-33.719-15.126-33.719-33.719c0-18.593,15.126-33.719,33.719-33.719c1.797,0,3.634,0.15,5.459,0.447l11.939,1.939
			l1.844-11.955c2.401-15.566,10.327-29.85,22.315-40.221C125.65,96.284,141.145,90.517,157.176,90.517 M157.176,78.517
			c-39.367,0-71.984,28.894-77.806,66.631c-2.404-0.391-4.869-0.602-7.383-0.602c-25.25,0-45.719,20.469-45.719,45.719
			s20.469,45.719,45.719,45.719h150.26c36.241,0,65.621-29.379,65.621-65.621c0-36.242-29.379-65.621-65.621-65.621
			c-2.079,0-4.132,0.108-6.162,0.297C201.662,88.777,180.622,78.517,157.176,78.517L157.176,78.517z"/>
	</g>
</g>
</svg>
