<svg version="1.1" id="Icons" xmlns="http://www.w3.org/2000/svg" xmlns:xlink="http://www.w3.org/1999/xlink" x="0px" y="0px"
	 viewBox="0 0 313.92 313.92" style="enable-background:new 0 0 313.92 313.92;" xml:space="preserve">
<style type="text/css">
	.st0{fill:#FF9838;}
	.st1{fill:#B6BBBF;}
	.st2{fill:#888A8C;}
	.st3{fill:#00AEBD;}
</style>
<g>
	<g>
		<path class="st1" d="M157.176,90.517c19.059,0,37.258,8.195,49.932,22.484l4.035,4.55l6.055-0.564
			c1.773-0.165,3.425-0.246,5.049-0.246c29.567,0,53.621,24.054,53.621,53.621c0,29.566-24.054,53.621-53.621,53.621H71.987
			c-18.593,0-33.719-15.126-33.719-33.719c0-18.593,15.126-33.719,33.719-33.719c1.798,0,3.634,0.15,5.459,0.447l11.939,1.939
			l1.844-11.955c2.402-15.566,10.327-29.85,22.315-40.221C125.65,96.284,141.145,90.517,157.176,90.517 M157.176,78.517
			c-39.367,0-71.983,28.894-77.806,66.631c-2.404-0.391-4.869-0.602-7.383-0.602c-25.25,0-45.719,20.469-45.719,45.719
			s20.469,45.719,45.719,45.719h150.26c36.241,0,65.621-29.379,65.621-65.621c0-36.242-29.38-65.621-65.621-65.621
			c-2.079,0-4.132,0.108-6.162,0.297C201.662,88.777,180.622,78.517,157.176,78.517L157.176,78.517z"/>
	</g>
</g>
</svg>
