<svg version="1.1" id="Icons" xmlns="http://www.w3.org/2000/svg" xmlns:xlink="http://www.w3.org/1999/xlink" x="0px" y="0px"
	 viewBox="0 0 313.92 313.92" style="enable-background:new 0 0 313.92 313.92;" xml:space="preserve">
<style type="text/css">
	.st0{fill:#FF9838;}
	.st1{fill:#B6BBBF;}
	.st2{fill:#888A8C;}
	.st3{fill:#00AEBD;}
</style>
<g>
	<path class="st1" d="M198.144,223.983H71.987c-18.593,0-33.719-15.126-33.719-33.719c0-18.593,15.126-33.719,33.719-33.719
		c1.798,0,3.634,0.15,5.459,0.447l11.939,1.939l1.844-11.955c2.402-15.566,10.327-29.85,22.315-40.221
		c12.105-10.472,27.601-16.239,43.631-16.239c19.059,0,37.258,8.195,49.933,22.484l4.035,4.55l6.055-0.564
		c1.773-0.165,3.425-0.246,5.049-0.246c29.566,0,53.621,24.054,53.621,53.621c0,9.423-2.452,18.282-6.739,25.985
		c1.505,1.195,2.919,2.518,4.213,3.977l2.018,2.275l3.027-0.282c0.421-0.039,0.825-0.067,1.222-0.087
		c5.255-9.438,8.26-20.3,8.26-31.869c0-36.242-29.38-65.621-65.621-65.621c-2.079,0-4.132,0.108-6.161,0.297
		c-14.424-16.262-35.464-26.522-58.91-26.522c-39.367,0-71.983,28.894-77.806,66.631c-2.404-0.391-4.869-0.602-7.383-0.602
		c-25.25,0-45.719,20.469-45.719,45.719s20.469,45.719,45.719,45.719h117.394C190.29,230.764,193.602,226.367,198.144,223.983z"/>
	<g>
		<g>
			<path class="st1" d="M248.436,195.11c7.792,0,15.234,3.352,20.418,9.197l4.035,4.549l6.055-0.564
				c0.698-0.065,1.341-0.096,1.963-0.096c11.439,0,20.744,9.306,20.744,20.744c0,11.438-9.306,20.744-20.744,20.744h-74.979
				c-5.963,0-10.814-4.851-10.814-10.814c0-5.962,4.851-10.813,10.814-10.813c0.575,0,1.167,0.049,1.76,0.145l11.939,1.939
				l1.844-11.955C223.501,205.031,235.094,195.11,248.436,195.11 M248.436,183.11c-19.644,0-35.919,14.418-38.824,33.249
				c-1.199-0.195-2.43-0.3-3.684-0.3c-12.6,0-22.814,10.214-22.814,22.813c0,12.6,10.214,22.814,22.814,22.814h74.979
				c18.084,0,32.744-14.66,32.744-32.744c0-18.085-14.66-32.744-32.744-32.744c-1.037,0-2.062,0.054-3.074,0.148
				C270.635,188.23,260.136,183.11,248.436,183.11L248.436,183.11z"/>
		</g>
	</g>
</g>
</svg>
