<svg version="1.1" id="Icons" xmlns="http://www.w3.org/2000/svg" xmlns:xlink="http://www.w3.org/1999/xlink" x="0px" y="0px"
	 viewBox="0 0 313.92 313.92" style="enable-background:new 0 0 313.92 313.92;" xml:space="preserve">
<style type="text/css">
	.st0{fill:#FF9838;}
	.st1{fill:#B6BBBF;}
	.st2{fill:#888A8C;}
	.st3{fill:#00AEBD;}
</style>
<path class="st1" d="M38.885,157.458c2.997-15.544,16.696-27.324,33.102-27.324c1.798,0,3.635,0.15,5.46,0.447l11.938,1.939
	l1.845-11.955c2.401-15.566,10.327-29.85,22.315-40.221c12.105-10.472,27.601-16.239,43.631-16.239
	c19.059,0,37.259,8.195,49.933,22.484l4.035,4.55l6.055-0.564c1.773-0.165,3.425-0.246,5.049-0.246
	c29.566,0,53.621,24.054,53.621,53.621c0,4.664-0.602,9.19-1.726,13.507h12.327c0.913-4.36,1.398-8.876,1.398-13.507
	c0-36.241-29.38-65.621-65.621-65.621c-2.079,0-4.132,0.108-6.161,0.297c-14.424-16.262-35.464-26.522-58.91-26.522
	c-39.367,0-71.983,28.894-77.806,66.631c-2.404-0.391-4.869-0.602-7.384-0.602c-23.078,0-42.151,17.103-45.264,39.324H38.885z"/>
<g>
	<path class="st1" d="M307.573,163.458H6.907c-3.313,0-6-2.687-6-6c0-3.313,2.687-6,6-6h300.666c3.313,0,6,2.687,6,6
		C313.573,160.771,310.887,163.458,307.573,163.458z"/>
</g>
<g>
	<path class="st1" d="M307.573,202.238H6.907c-3.313,0-6-2.686-6-6c0-3.313,2.687-6,6-6h300.666c3.313,0,6,2.687,6,6
		C313.573,199.551,310.887,202.238,307.573,202.238z"/>
</g>
<g>
	<path class="st1" d="M307.573,241.018H6.907c-3.313,0-6-2.686-6-6c0-3.313,2.687-6,6-6h300.666c3.313,0,6,2.687,6,6
		C313.573,238.331,310.887,241.018,307.573,241.018z"/>
</g>
</svg>
