<svg version="1.1" id="Icons" xmlns="http://www.w3.org/2000/svg" xmlns:xlink="http://www.w3.org/1999/xlink" x="0px" y="0px"
	 viewBox="0 0 313.92 313.92" style="enable-background:new 0 0 313.92 313.92;" xml:space="preserve">
<style type="text/css">
	.st0{fill:#FF9838;}
	.st1{fill:#B6BBBF;}
	.st2{fill:#888A8C;}
	.st3{fill:#00AEBD;}
</style>
<g>
	<g>
		<g>
			<path class="st1" d="M157.176,64.105c19.059,0,37.259,8.195,49.933,22.484l4.035,4.55l6.055-0.564
				c1.773-0.165,3.425-0.246,5.049-0.246c29.567,0,53.621,24.054,53.621,53.621c0,29.566-24.054,53.621-53.621,53.621H71.986
				c-18.592,0-33.718-15.126-33.718-33.719c0-18.592,15.126-33.719,33.718-33.719c1.799,0,3.635,0.15,5.46,0.447l11.939,1.939
				l1.845-11.955c2.401-15.566,10.326-29.85,22.314-40.221C125.65,69.872,141.145,64.105,157.176,64.105 M157.176,52.105
				c-39.367,0-71.983,28.894-77.806,66.631c-2.404-0.391-4.868-0.602-7.384-0.602c-25.249,0-45.718,20.469-45.718,45.719
				c0,25.25,20.469,45.719,45.718,45.719h150.261c36.242,0,65.621-29.379,65.621-65.621S258.489,78.33,222.247,78.33
				c-2.079,0-4.132,0.108-6.161,0.297C201.662,62.365,180.622,52.105,157.176,52.105L157.176,52.105z"/>
		</g>
	</g>
</g>
<g>
	<path class="st3" d="M179.109,287.671c-1.052,0-2.116-0.276-3.083-0.857c-2.841-1.706-3.761-5.392-2.055-8.233l24.141-40.193
		c1.705-2.841,5.393-3.761,8.232-2.054c2.841,1.706,3.761,5.392,2.055,8.233l-24.141,40.193
		C183.134,286.633,181.146,287.671,179.109,287.671z"/>
</g>
<g>
	<path class="st3" d="M124.113,313.904c-1.052,0-2.116-0.276-3.083-0.857c-2.841-1.706-3.761-5.392-2.055-8.233l39.897-66.426
		c1.706-2.841,5.393-3.761,8.232-2.054c2.841,1.706,3.761,5.392,2.055,8.233l-39.897,66.426
		C128.138,312.866,126.15,313.904,124.113,313.904z"/>
</g>
<g>
	<path class="st3" d="M100.63,287.671c-1.052,0-2.116-0.276-3.083-0.857c-2.841-1.706-3.761-5.392-2.055-8.233l24.141-40.193
		c1.706-2.841,5.393-3.761,8.232-2.054c2.841,1.706,3.761,5.392,2.055,8.233l-24.141,40.193
		C104.654,286.633,102.667,287.671,100.63,287.671z"/>
</g>
</svg>
