<svg version="1.1" id="Icons" xmlns="http://www.w3.org/2000/svg" xmlns:xlink="http://www.w3.org/1999/xlink" x="0px" y="0px"
	 viewBox="0 0 313.92 313.92" style="enable-background:new 0 0 313.92 313.92;" xml:space="preserve">
<style type="text/css">
	.st0{fill:#FF9838;}
	.st1{fill:#B6BBBF;}
	.st2{fill:#888A8C;}
	.st3{fill:#00AEBD;}
</style>
<g>
	<g>
		<path class="st0" d="M91.658,38.861c-3.313,0-6-2.687-6-6V5.657c0-3.313,2.687-6,6-6s6,2.687,6,6v27.204
			C97.658,36.175,94.972,38.861,91.658,38.861z"/>
	</g>
	<g>
		<path class="st0" d="M50.482,55.917c-1.536,0-3.071-0.586-4.243-1.757L27.003,34.923c-2.343-2.343-2.343-6.142,0-8.485
			c2.343-2.343,6.143-2.343,8.485,0l19.236,19.236c2.343,2.343,2.343,6.142,0,8.485C53.554,55.331,52.018,55.917,50.482,55.917z"/>
	</g>
	<g>
		<path class="st0" d="M33.427,97.093H6.223c-3.313,0-6-2.686-6-6c0-3.313,2.687-6,6-6h27.204c3.313,0,6,2.687,6,6
			C39.427,94.406,36.74,97.093,33.427,97.093z"/>
	</g>
	<path class="st0" d="M61.155,125.394c3.446-0.978,7.076-1.514,10.832-1.514c2.118,0,4.279,0.176,6.422,0.524l5.969,0.969
		l0.167-1.084c-15.213-3.276-26.653-16.827-26.653-33.006c0-18.619,15.147-33.767,33.767-33.767
		c10.375,0,19.667,4.706,25.867,12.093c3.427-2.229,7.03-4.151,10.763-5.767c-8.349-11.127-21.648-18.326-36.629-18.326
		c-25.276,0-45.767,20.491-45.767,45.767C45.892,104.839,51.79,117.014,61.155,125.394z"/>
</g>
<g>
	<g>
		<path class="st1" d="M157.176,63.851c19.059,0,37.258,8.195,49.932,22.485l4.035,4.549l6.055-0.564
			c1.773-0.165,3.425-0.245,5.049-0.245c29.566,0,53.621,24.054,53.621,53.621c0,29.566-24.054,53.621-53.621,53.621H71.987
			c-18.593,0-33.719-15.126-33.719-33.719c0-18.592,15.126-33.719,33.719-33.719c1.797,0,3.634,0.15,5.459,0.447l11.939,1.939
			l1.844-11.954c2.401-15.567,10.327-29.851,22.315-40.221C125.65,69.619,141.145,63.851,157.176,63.851 M157.176,51.851
			c-39.367,0-71.984,28.894-77.806,66.631c-2.404-0.391-4.869-0.603-7.383-0.603c-25.25,0-45.719,20.469-45.719,45.719
			c0,25.25,20.469,45.719,45.719,45.719h150.26c36.241,0,65.621-29.379,65.621-65.621s-29.379-65.621-65.621-65.621
			c-2.079,0-4.132,0.108-6.162,0.297C201.662,62.111,180.622,51.851,157.176,51.851L157.176,51.851z"/>
	</g>
</g>
<g>
	<g>
		<path class="st3" d="M179.109,287.687c-1.051,0-2.116-0.276-3.084-0.858c-2.841-1.706-3.76-5.392-2.054-8.232l24.141-40.192
			c1.706-2.841,5.391-3.763,8.233-2.055c2.841,1.706,3.76,5.393,2.054,8.233l-24.141,40.192
			C183.133,286.648,181.146,287.687,179.109,287.687z"/>
	</g>
	<g>
		<path class="st3" d="M124.113,313.92c-1.051,0-2.116-0.276-3.084-0.858c-2.841-1.706-3.76-5.392-2.054-8.232l39.897-66.426
			c1.706-2.841,5.39-3.763,8.233-2.055c2.841,1.706,3.76,5.393,2.054,8.233l-39.897,66.426
			C128.137,312.882,126.15,313.92,124.113,313.92z"/>
	</g>
	<g>
		<path class="st3" d="M100.629,287.687c-1.051,0-2.116-0.276-3.083-0.858c-2.841-1.706-3.76-5.392-2.054-8.232l24.141-40.192
			c1.706-2.841,5.391-3.763,8.233-2.055c2.841,1.706,3.76,5.393,2.054,8.233l-24.141,40.192
			C104.653,286.648,102.667,287.687,100.629,287.687z"/>
	</g>
</g>
</svg>
