<svg version="1.1" id="Icons" xmlns="http://www.w3.org/2000/svg" xmlns:xlink="http://www.w3.org/1999/xlink" x="0px" y="0px"
	 viewBox="0 0 313.92 313.92" style="enable-background:new 0 0 313.92 313.92;" xml:space="preserve">
<style type="text/css">
	.st0{fill:#FF9838;}
	.st1{fill:#B6BBBF;}
	.st2{fill:#888A8C;}
	.st3{fill:#00AEBD;}
</style>
<g>
	<g>
		<path class="st0" d="M137.539,47.947c-3.314,0-6-2.687-6-6V5.933c0-3.313,2.686-6,6-6c3.313,0,6,2.687,6,6v36.014
			C143.539,45.26,140.853,47.947,137.539,47.947z"/>
	</g>
	<g>
		<path class="st0" d="M70.152,75.859c-1.536,0-3.071-0.585-4.243-1.757L40.444,48.636c-2.343-2.343-2.343-6.142,0-8.485
			c2.343-2.343,6.142-2.343,8.485,0l25.465,25.466c2.343,2.343,2.343,6.142,0,8.485C73.224,75.273,71.688,75.859,70.152,75.859z"/>
	</g>
	<g>
		<path class="st0" d="M42.24,143.246H6.226c-3.314,0-6-2.686-6-6c0-3.313,2.686-6,6-6H42.24c3.313,0,6,2.687,6,6
			C48.24,140.56,45.554,143.246,42.24,143.246z"/>
	</g>
	<g>
		<path class="st0" d="M44.687,236.098c-1.536,0-3.071-0.586-4.243-1.757c-2.343-2.343-2.343-6.142,0-8.485L65.91,200.39
			c2.343-2.343,6.142-2.343,8.485,0c2.343,2.343,2.343,6.142,0,8.485L48.93,234.341C47.758,235.512,46.223,236.098,44.687,236.098z"
			/>
	</g>
	<g>
		<path class="st0" d="M205.541,75.244c-1.536,0-3.071-0.586-4.243-1.757c-2.343-2.343-2.343-6.142,0-8.485l24.85-24.851
			c2.343-2.343,6.143-2.343,8.485,0c2.343,2.343,2.343,6.142,0,8.485l-24.851,24.851C208.612,74.658,207.077,75.244,205.541,75.244z
			"/>
	</g>
	<path class="st0" d="M110.759,199.509c-23.763-10.44-40.408-34.188-40.408-61.763c0-37.184,30.251-67.435,67.435-67.435
		c29.656,0,54.884,19.251,63.89,45.907c2.571-0.355,5.176-0.539,7.797-0.539c1.568,0,3.127,0.085,4.678,0.213
		c-9.496-33.239-40.078-57.581-76.366-57.581c-43.871,0-79.435,35.564-79.435,79.435c0,35.759,23.631,65.992,56.127,75.953
		C112.166,209.472,110.831,204.641,110.759,199.509z"/>
</g>
<g>
	<g>
		<path class="st1" d="M209.474,121.679c14.561,0,28.466,6.262,38.15,17.18l4.035,4.55l6.056-0.564
			c1.343-0.125,2.591-0.186,3.816-0.186c22.33,0,40.497,18.167,40.497,40.497c0,22.33-18.167,40.497-40.497,40.497H141.323
			c-13.55,0-24.575-11.024-24.575-24.575c0-13.551,11.024-24.575,24.575-24.575c1.31,0,2.65,0.11,3.983,0.327l11.939,1.939
			l1.845-11.955c1.834-11.891,7.89-22.803,17.05-30.728C185.388,126.085,197.226,121.679,209.474,121.679 M209.474,109.679
			c-31.494,0-57.587,23.115-62.245,53.305c-1.923-0.312-3.895-0.482-5.907-0.482c-20.2,0-36.575,16.376-36.575,36.575
			s16.375,36.575,36.575,36.575h120.208c28.993,0,52.497-23.503,52.497-52.497c0-28.993-23.504-52.497-52.497-52.497
			c-1.663,0-3.306,0.087-4.929,0.238C245.063,117.887,228.231,109.679,209.474,109.679L209.474,109.679z"/>
	</g>
</g>
<g>
	<g>
		<path class="st3" d="M192.813,313.92c-1.051,0-2.116-0.276-3.083-0.858c-2.841-1.706-3.76-5.392-2.054-8.232l24.48-40.757
			c1.706-2.841,5.39-3.763,8.233-2.055c2.841,1.706,3.76,5.393,2.054,8.233l-24.48,40.757
			C196.837,312.882,194.851,313.92,192.813,313.92z"/>
	</g>
	<g>
		<path class="st3" d="M239.849,300.94c-1.051,0-2.116-0.276-3.083-0.857c-2.841-1.706-3.76-5.392-2.054-8.233l16.684-27.777
			c1.705-2.841,5.39-3.763,8.233-2.055c2.841,1.706,3.76,5.393,2.054,8.233l-16.684,27.777
			C243.873,299.902,241.886,300.94,239.849,300.94z"/>
	</g>
	<g>
		<path class="st3" d="M161.369,300.94c-1.051,0-2.116-0.276-3.084-0.857c-2.841-1.706-3.76-5.392-2.054-8.233l16.684-27.777
			c1.706-2.841,5.39-3.763,8.233-2.055c2.841,1.706,3.76,5.393,2.054,8.233l-16.684,27.777
			C165.393,299.902,163.407,300.94,161.369,300.94z"/>
	</g>
</g>
</svg>
