<svg version="1.1" id="Icons" xmlns="http://www.w3.org/2000/svg" xmlns:xlink="http://www.w3.org/1999/xlink" x="0px" y="0px"
	 viewBox="0 0 313.92 313.92" style="enable-background:new 0 0 313.92 313.92;" xml:space="preserve">
<style type="text/css">
	.st0{fill:#FF9838;}
	.st1{fill:#B6BBBF;}
	.st2{fill:#888A8C;}
	.st3{fill:#00AEBD;}
</style>
<path class="st1" d="M222.247,78.33c-2.079,0-4.132,0.108-6.161,0.297c-14.424-16.262-35.464-26.522-58.91-26.522
	c-39.367,0-71.983,28.894-77.806,66.631c-2.404-0.391-4.869-0.602-7.383-0.602c-25.51,0-46.14,20.893-45.712,46.5
	c0.419,25.068,21.393,44.937,46.465,44.937h57.905c2.106,0,4.059-1.105,5.143-2.911l0,0c2.402-3.999-0.479-9.089-5.143-9.089H72.658
	c-18.866,0-34.707-15.438-34.385-34.302c0.312-18.325,15.316-33.136,33.714-33.136c1.798,0,3.634,0.15,5.459,0.447l11.939,1.939
	l1.844-11.955c2.402-15.566,10.327-29.85,22.315-40.221c12.105-10.472,27.601-16.239,43.631-16.239
	c19.059,0,37.258,8.195,49.932,22.485l4.036,4.549l6.055-0.564c1.773-0.165,3.425-0.245,5.049-0.245
	c29.844,0,54.071,24.507,53.614,54.453c-0.448,29.422-25.003,52.788-54.428,52.788H188.97c-2.106,0-4.059,1.105-5.144,2.911l0,0
	c-2.402,4,0.478,9.089,5.144,9.089h32.3c36.064,0,66.125-28.688,66.593-64.75C288.338,108.181,258.778,78.33,222.247,78.33z"/>
<path class="st0" d="M182.237,238.523c-1.064-1.882-3.059-3.045-5.222-3.045h-29.373l34.438-57.337
	c1.706-2.841,0.786-6.527-2.055-8.233c-2.839-1.707-6.526-0.787-8.232,2.054l-39.897,66.426c-1.706,2.841-0.787,6.527,2.054,8.233
	c0.817,0.491,1.704,0.752,2.594,0.825c0.006,0,0.013,0,0.019,0.001c0.157,0.013,0.314,0.031,0.471,0.031
	c0.022,0,0.043-0.004,0.065-0.004c0.021,0,0.041,0.003,0.062,0.003h29.253l-34.438,57.336c-1.706,2.841-0.787,6.527,2.054,8.233
	c0.967,0.581,2.032,0.857,3.083,0.857c2.038,0,4.024-1.038,5.149-2.912l39.897-66.426
	C183.272,242.713,183.303,240.404,182.237,238.523z"/>
</svg>
