<svg version="1.1" id="Icons" xmlns="http://www.w3.org/2000/svg" xmlns:xlink="http://www.w3.org/1999/xlink" x="0px" y="0px"
	 viewBox="0 0 313.92 313.92" style="enable-background:new 0 0 313.92 313.92;" xml:space="preserve">
<style type="text/css">
	.st0{fill:#FF9838;}
	.st1{fill:#B6BBBF;}
	.st2{fill:#888A8C;}
	.st3{fill:#00AEBD;}
</style>
<g>
	<g>
		<path class="st0" d="M137.539,47.947c-3.313,0-6-2.687-6-6V5.933c0-3.313,2.687-6,6-6c3.313,0,6,2.687,6,6v36.014
			C143.539,45.26,140.852,47.947,137.539,47.947z"/>
	</g>
	<g>
		<path class="st0" d="M70.152,75.859c-1.536,0-3.071-0.586-4.243-1.757L40.444,48.636c-2.343-2.343-2.343-6.142,0.001-8.485
			c2.343-2.343,6.143-2.342,8.485,0l25.465,25.466c2.343,2.343,2.343,6.142-0.001,8.485C73.224,75.273,71.688,75.859,70.152,75.859z
			"/>
	</g>
	<g>
		<path class="st0" d="M42.24,143.246H6.227c-3.314,0-6-2.686-6-6c0-3.313,2.687-6,6-6H42.24c3.313,0,6,2.687,6,6
			C48.24,140.56,45.554,143.246,42.24,143.246z"/>
	</g>
	<g>
		<path class="st0" d="M44.688,236.098c-1.535,0-3.071-0.586-4.242-1.757c-2.344-2.343-2.344-6.142-0.001-8.485l25.465-25.466
			c2.344-2.343,6.143-2.343,8.485,0c2.344,2.343,2.344,6.142,0.001,8.485l-25.465,25.466
			C47.759,235.512,46.223,236.098,44.688,236.098z"/>
	</g>
	<g>
		<path class="st0" d="M205.541,75.244c-1.535,0-3.071-0.586-4.242-1.757c-2.344-2.343-2.344-6.142,0-8.485l24.851-24.851
			c2.342-2.343,6.143-2.343,8.484,0c2.344,2.343,2.344,6.142,0,8.485l-24.851,24.851C208.612,74.658,207.076,75.244,205.541,75.244z
			"/>
	</g>
	<path class="st0" d="M110.759,199.509c-23.763-10.44-40.407-34.188-40.407-61.763c0-37.184,30.252-67.435,67.435-67.435
		c29.656,0,54.884,19.251,63.89,45.907c2.571-0.355,5.176-0.539,7.798-0.539c1.568,0,3.127,0.085,4.678,0.213
		c-9.496-33.239-40.078-57.581-76.365-57.581c-43.871,0-79.435,35.564-79.435,79.435c0,35.759,23.632,65.992,56.127,75.953
		C112.167,209.472,110.831,204.641,110.759,199.509z"/>
</g>
<path class="st1" d="M261.424,130.658c-1.663,0-3.306,0.087-4.93,0.238c-11.539-13.009-28.37-21.217-47.127-21.217
	c-31.494,0-57.588,23.115-62.245,53.305c-1.924-0.312-3.896-0.482-5.907-0.482c-19.961,0-36.188,15.991-36.567,35.862
	c-0.393,20.505,16.782,37.288,37.29,37.288h39.104c2.106,0,4.059-1.104,5.143-2.911l0,0c2.402-3.999-0.479-9.089-5.143-9.089
	h-39.268c-13.748,0-25.361-11.25-25.13-24.996c0.226-13.357,11.162-24.154,24.571-24.154c1.311,0,2.65,0.11,3.982,0.327
	l11.939,1.939l1.845-11.955c1.835-11.891,7.89-22.803,17.051-30.728c9.248-8.001,21.087-12.406,33.335-12.406
	c14.561,0,28.466,6.262,38.149,17.18l4.036,4.55l6.055-0.564c1.344-0.125,2.592-0.186,3.816-0.186
	c22.654,0,41.023,18.699,40.484,41.473c-0.522,22.108-19.13,39.52-41.244,39.52h-21.298c-2.106,0-4.06,1.105-5.144,2.911l0,0
	c-2.402,3.999,0.479,9.089,5.144,9.089h21.193c28.788,0,52.872-22.815,53.353-51.599
	C314.404,154.648,290.716,130.658,261.424,130.658z"/>
<path class="st0" d="M240.599,251.523c-1.064-1.882-3.06-3.045-5.222-3.045h-29.374l26.939-44.852
	c1.706-2.841,0.786-6.527-2.055-8.233c-2.84-1.706-6.526-0.786-8.232,2.054l-32.398,53.941c-1.706,2.841-0.786,6.527,2.055,8.233
	c0.816,0.491,1.703,0.752,2.593,0.825c0.006,0.001,0.014,0.001,0.021,0.001c0.156,0.013,0.313,0.031,0.47,0.031
	c0.021,0,0.043-0.004,0.064-0.004c0.021,0,0.041,0.003,0.061,0.003h29.254L198.2,304.732c-1.706,2.841-0.786,6.527,2.055,8.233
	c0.967,0.581,2.031,0.857,3.083,0.857c2.037,0,4.023-1.038,5.149-2.912l32.033-53.343
	C241.634,255.713,241.664,253.404,240.599,251.523z"/>
</svg>
