<svg version="1.1" id="Icons" xmlns="http://www.w3.org/2000/svg" xmlns:xlink="http://www.w3.org/1999/xlink" x="0px" y="0px"
	 viewBox="0 0 313.92 313.92" style="enable-background:new 0 0 313.92 313.92;" xml:space="preserve">
<style type="text/css">
	.st0{fill:#FF9838;}
	.st1{fill:#B6BBBF;}
	.st2{fill:#888A8C;}
	.st3{fill:#00AEBD;}
</style>
<g>
	<g>
		<g>
			<path class="st1" d="M157.176,64.105c19.059,0,37.258,8.195,49.932,22.484l4.035,4.55l6.055-0.564
				c1.773-0.165,3.424-0.245,5.049-0.245c29.566,0,53.621,24.054,53.621,53.621c0,29.567-24.054,53.621-53.621,53.621H71.987
				c-18.593,0-33.719-15.126-33.719-33.719c0-18.592,15.126-33.718,33.719-33.718c1.798,0,3.634,0.15,5.458,0.447l11.94,1.939
				l1.844-11.955c2.401-15.566,10.327-29.85,22.315-40.221C125.65,69.872,141.145,64.105,157.176,64.105 M157.176,52.105
				c-39.367,0-71.984,28.894-77.806,66.631c-2.404-0.391-4.869-0.602-7.383-0.602c-25.25,0-45.719,20.469-45.719,45.718
				c0,25.25,20.469,45.719,45.719,45.719h150.26c36.241,0,65.621-29.379,65.621-65.621c0-36.241-29.379-65.621-65.621-65.621
				c-2.079,0-4.132,0.108-6.162,0.297C201.662,62.365,180.622,52.105,157.176,52.105L157.176,52.105z"/>
		</g>
	</g>
</g>
<g>
	<g>
		<path class="st3" d="M163.353,313.92c-1.051,0-2.116-0.276-3.083-0.857c-2.841-1.707-3.76-5.392-2.054-8.233l39.897-66.426
			c1.706-2.84,5.39-3.762,8.233-2.054c2.841,1.706,3.76,5.392,2.054,8.233l-39.898,66.426
			C167.377,312.882,165.391,313.92,163.353,313.92z"/>
	</g>
	<g>
		<path class="st3" d="M84.873,313.92c-1.051,0-2.116-0.276-3.083-0.857c-2.841-1.707-3.76-5.392-2.054-8.233l39.897-66.426
			c1.706-2.84,5.391-3.762,8.233-2.054c2.841,1.706,3.76,5.392,2.054,8.233l-39.897,66.426
			C88.897,312.882,86.911,313.92,84.873,313.92z"/>
	</g>
	<g>
		<path class="st3" d="M139.87,287.688c-1.051,0-2.116-0.276-3.083-0.858c-2.841-1.706-3.76-5.392-2.054-8.233l24.141-40.193
			c1.706-2.84,5.391-3.762,8.233-2.054c2.841,1.706,3.76,5.392,2.054,8.233l-24.141,40.193
			C143.894,286.649,141.907,287.688,139.87,287.688z"/>
	</g>
	<g>
		<path class="st3" d="M61.389,287.688c-1.051,0-2.116-0.276-3.083-0.858c-2.841-1.706-3.76-5.392-2.054-8.233l24.141-40.193
			c1.706-2.84,5.39-3.762,8.233-2.054c2.841,1.706,3.76,5.392,2.054,8.233l-24.141,40.193
			C65.413,286.649,63.427,287.688,61.389,287.688z"/>
	</g>
	<g>
		<path class="st3" d="M218.35,287.688c-1.051,0-2.116-0.276-3.083-0.858c-2.841-1.706-3.76-5.392-2.054-8.233l24.141-40.193
			c1.706-2.84,5.39-3.762,8.233-2.054c2.841,1.706,3.76,5.392,2.054,8.233l-24.141,40.193
			C222.373,286.649,220.387,287.688,218.35,287.688z"/>
	</g>
</g>
</svg>
