<svg version="1.1" id="Icons" xmlns="http://www.w3.org/2000/svg" xmlns:xlink="http://www.w3.org/1999/xlink" x="0px" y="0px"
	 viewBox="0 0 313.92 313.92" style="enable-background:new 0 0 313.92 313.92;" xml:space="preserve">
<style type="text/css">
	.st0{fill:#FF9838;}
	.st1{fill:#B6BBBF;}
	.st2{fill:#888A8C;}
	.st3{fill:#00AEBD;}
</style>
<g>
	<g>
		<g>
			<path class="st1" d="M157.176,64.105c19.059,0,37.258,8.195,49.932,22.484l4.035,4.55l6.055-0.564
				c1.773-0.165,3.424-0.245,5.049-0.245c29.567,0,53.621,24.054,53.621,53.621c0,29.567-24.054,53.621-53.621,53.621H71.987
				c-18.593,0-33.719-15.126-33.719-33.719c0-18.592,15.126-33.718,33.719-33.718c1.798,0,3.635,0.15,5.458,0.447l11.94,1.939
				l1.844-11.955c2.402-15.566,10.327-29.85,22.315-40.221C125.65,69.872,141.145,64.105,157.176,64.105 M157.176,52.105
				c-39.367,0-71.983,28.894-77.806,66.631c-2.404-0.391-4.869-0.602-7.383-0.602c-25.25,0-45.719,20.469-45.719,45.718
				c0,25.25,20.469,45.719,45.719,45.719h150.26c36.241,0,65.621-29.379,65.621-65.621c0-36.241-29.38-65.621-65.621-65.621
				c-2.079,0-4.132,0.108-6.162,0.297C201.662,62.365,180.622,52.105,157.176,52.105L157.176,52.105z"/>
		</g>
	</g>
</g>
<path class="st3" d="M188.503,286.062l-19.759-11.365l19.722-11.429c2.867-1.662,3.845-5.333,2.183-8.2
	c-1.661-2.867-5.333-3.845-8.2-2.183l-19.722,11.429l-0.037-22.794c-0.005-3.311-2.69-5.99-6-5.99c-0.003,0-0.006,0-0.01,0
	c-3.313,0.005-5.996,2.696-5.99,6.01l0.037,22.794l-19.759-11.365c-2.871-1.65-6.54-0.664-8.193,2.21
	c-1.652,2.873-0.663,6.541,2.21,8.193l19.759,11.365l-19.722,11.429c-2.867,1.662-3.845,5.333-2.183,8.2
	c1.113,1.92,3.126,2.993,5.197,2.993c1.021,0,2.056-0.261,3.003-0.81l19.722-11.429l0.037,22.794c0.005,3.311,2.69,5.99,6,5.99
	c0.003,0,0.006,0,0.01,0c3.314-0.005,5.996-2.696,5.99-6.01l-0.037-22.794l19.759,11.365c0.943,0.542,1.971,0.8,2.986,0.8
	c2.077,0,4.097-1.08,5.207-3.009C192.364,291.383,191.375,287.715,188.503,286.062z"/>
</svg>
