<svg version="1.1" id="Icons" xmlns="http://www.w3.org/2000/svg" xmlns:xlink="http://www.w3.org/1999/xlink" x="0px" y="0px"
	 viewBox="0 0 313.92 313.92" style="enable-background:new 0 0 313.92 313.92;" xml:space="preserve">
<style type="text/css">
	.st0{fill:#FF9838;}
	.st1{fill:#B6BBBF;}
	.st2{fill:#888A8C;}
	.st3{fill:#00AEBD;}
</style>
<g>
	<g>
		<path class="st0" d="M91.658,38.861c-3.313,0-6-2.687-6-6V5.657c0-3.313,2.687-6,6-6c3.313,0,6,2.686,6,6v27.204
			C97.658,36.175,94.972,38.861,91.658,38.861z"/>
	</g>
	<g>
		<path class="st0" d="M50.482,55.917c-1.536,0-3.071-0.585-4.243-1.757L27.004,34.923c-2.343-2.343-2.343-6.142,0-8.485
			c2.343-2.343,6.142-2.343,8.485,0l19.236,19.236c2.343,2.343,2.343,6.142,0,8.485C53.554,55.331,52.018,55.917,50.482,55.917z"/>
	</g>
	<g>
		<path class="st0" d="M33.427,97.093H6.223c-3.314,0-6-2.687-6-6c0-3.313,2.686-6,6-6h27.204c3.313,0,6,2.687,6,6
			C39.427,94.406,36.741,97.093,33.427,97.093z"/>
	</g>
	<path class="st0" d="M61.155,125.394c3.446-0.979,7.076-1.514,10.832-1.514c2.119,0,4.279,0.176,6.421,0.524l5.97,0.97l0.167-1.085
		c-15.214-3.276-26.654-16.828-26.654-33.006c0-18.619,15.148-33.767,33.767-33.767c10.375,0,19.668,4.707,25.867,12.093
		c3.427-2.229,7.03-4.151,10.763-5.767c-8.349-11.127-21.648-18.327-36.63-18.327c-25.276,0-45.767,20.491-45.767,45.767
		C45.892,104.839,51.79,117.014,61.155,125.394z"/>
</g>
<g>
	<g>
		<path class="st1" d="M157.176,63.852c19.059,0,37.258,8.195,49.932,22.484l4.036,4.55l6.055-0.564
			c1.773-0.165,3.425-0.245,5.049-0.245c29.566,0,53.621,24.054,53.621,53.621c0,29.567-24.055,53.621-53.621,53.621H71.987
			c-18.593,0-33.719-15.126-33.719-33.718c0-18.593,15.126-33.719,33.719-33.719c1.797,0,3.634,0.15,5.459,0.447l11.939,1.939
			l1.844-11.954c2.402-15.566,10.327-29.85,22.315-40.221C125.65,69.619,141.145,63.852,157.176,63.852 M157.176,51.852
			c-39.367,0-71.983,28.894-77.806,66.631c-2.404-0.391-4.869-0.602-7.383-0.602c-25.25,0-45.719,20.469-45.719,45.719
			c0,25.249,20.469,45.718,45.719,45.718h150.26c36.241,0,65.621-29.379,65.621-65.621c0-36.241-29.38-65.621-65.621-65.621
			c-2.079,0-4.132,0.108-6.161,0.297C201.662,62.111,180.622,51.852,157.176,51.852L157.176,51.852z"/>
	</g>
</g>
<path class="st3" d="M188.503,286.062l-19.759-11.365l19.723-11.429c2.866-1.662,3.844-5.332,2.183-8.2
	c-1.662-2.867-5.331-3.845-8.2-2.183l-19.722,11.429l-0.037-22.794c-0.006-3.311-2.69-5.99-6-5.99c-0.003,0-0.006,0-0.01,0
	c-3.313,0.005-5.996,2.696-5.99,6.01l0.037,22.794l-19.758-11.365c-2.871-1.65-6.54-0.662-8.193,2.21
	c-1.652,2.873-0.663,6.541,2.21,8.193l19.759,11.365l-19.722,11.429c-2.867,1.662-3.845,5.332-2.183,8.2
	c1.113,1.92,3.127,2.993,5.197,2.993c1.021,0,2.056-0.261,3.003-0.81l19.722-11.429l0.037,22.794c0.005,3.311,2.69,5.99,6,5.99
	c0.003,0,0.006,0,0.01,0c3.313-0.005,5.995-2.696,5.99-6.01l-0.037-22.794l19.76,11.365c0.942,0.542,1.971,0.8,2.985,0.8
	c2.077,0,4.097-1.08,5.207-3.009C192.365,291.383,191.376,287.715,188.503,286.062z"/>
</svg>
