<svg version="1.1" id="Icons" xmlns="http://www.w3.org/2000/svg" xmlns:xlink="http://www.w3.org/1999/xlink" x="0px" y="0px"
	 viewBox="0 0 313.92 313.92" style="enable-background:new 0 0 313.92 313.92;" xml:space="preserve">
<style type="text/css">
	.st0{fill:#FF9838;}
	.st1{fill:#B6BBBF;}
	.st2{fill:#888A8C;}
	.st3{fill:#00AEBD;}
</style>
<g>
	<g>
		<path class="st0" d="M137.539,47.947c-3.313,0-6-2.687-6-6V5.933c0-3.314,2.687-6,6-6c3.313,0,6,2.687,6,6v36.014
			C143.539,45.26,140.852,47.947,137.539,47.947z"/>
	</g>
	<g>
		<path class="st0" d="M70.152,75.859c-1.536,0-3.071-0.586-4.243-1.757L40.444,48.636c-2.343-2.343-2.343-6.142,0.001-8.485
			c2.343-2.343,6.143-2.342,8.485,0l25.465,25.466c2.343,2.343,2.343,6.142-0.001,8.485C73.224,75.273,71.688,75.859,70.152,75.859z
			"/>
	</g>
	<g>
		<path class="st0" d="M42.24,143.246H6.227c-3.313,0-6-2.687-6-6c0-3.313,2.687-6,6-6H42.24c3.313,0,6,2.687,6,6
			C48.24,140.559,45.554,143.246,42.24,143.246z"/>
	</g>
	<g>
		<path class="st0" d="M44.688,236.098c-1.535,0-3.071-0.586-4.242-1.757c-2.344-2.343-2.344-6.142-0.001-8.485l25.465-25.465
			c2.344-2.343,6.144-2.343,8.485,0c2.344,2.343,2.344,6.142,0.001,8.485l-25.465,25.465
			C47.759,235.512,46.223,236.098,44.688,236.098z"/>
	</g>
	<g>
		<path class="st0" d="M205.541,75.244c-1.535,0-3.071-0.586-4.242-1.757c-2.344-2.343-2.344-6.142,0-8.485l24.851-24.851
			c2.342-2.343,6.143-2.343,8.484,0c2.344,2.343,2.344,6.142,0,8.485l-24.851,24.851C208.612,74.658,207.076,75.244,205.541,75.244z
			"/>
	</g>
	<path class="st0" d="M110.759,199.509c-23.763-10.44-40.407-34.188-40.407-61.763c0-37.184,30.252-67.435,67.436-67.435
		c29.655,0,54.884,19.251,63.891,45.906c2.57-0.355,5.175-0.539,7.797-0.539c1.568,0,3.127,0.085,4.678,0.213
		c-9.496-33.239-40.078-57.58-76.365-57.58c-43.871,0-79.436,35.564-79.436,79.435c0,35.759,23.632,65.992,56.127,75.953
		C112.167,209.472,110.831,204.641,110.759,199.509z"/>
</g>
<g>
	<g>
		<path class="st1" d="M209.475,121.679c14.561,0,28.466,6.262,38.15,17.18l4.035,4.549l6.055-0.564
			c1.344-0.125,2.592-0.186,3.816-0.186c22.33,0,40.497,18.167,40.497,40.497c0,22.33-18.167,40.496-40.497,40.496H141.323
			c-13.551,0-24.575-11.024-24.575-24.575s11.024-24.575,24.575-24.575c1.31,0,2.649,0.109,3.982,0.326l11.939,1.939l1.845-11.954
			c1.834-11.891,7.89-22.803,17.05-30.728C185.388,126.085,197.227,121.679,209.475,121.679 M209.475,109.679
			c-31.494,0-57.587,23.115-62.245,53.305c-1.923-0.312-3.895-0.481-5.906-0.481c-20.2,0-36.575,16.375-36.575,36.575
			s16.375,36.575,36.575,36.575h120.208c28.993,0,52.497-23.503,52.497-52.496c0-28.993-23.504-52.497-52.497-52.497
			c-1.663,0-3.306,0.087-4.93,0.238C245.063,117.887,228.231,109.679,209.475,109.679L209.475,109.679z"/>
	</g>
</g>
<path class="st3" d="M235.499,288.411l-14.11-8.147l14.11-8.147c2.87-1.657,3.853-5.327,2.196-8.196
	c-1.656-2.869-5.325-3.854-8.196-2.196l-14.111,8.147v-16.294c0-3.314-2.687-6-6-6c-3.313,0-6,2.686-6,6v16.294l-14.11-8.147
	c-2.872-1.657-6.54-0.673-8.196,2.196c-1.656,2.87-0.674,6.539,2.196,8.196l14.11,8.147l-14.11,8.147
	c-2.87,1.657-3.852,5.327-2.196,8.196c1.111,1.925,3.128,3.001,5.202,3.001c1.018,0,2.05-0.259,2.994-0.805l14.11-8.147v16.294
	c0,3.313,2.687,6,6,6c3.313,0,6-2.687,6-6v-16.294l14.111,8.147c0.945,0.545,1.977,0.805,2.994,0.805
	c2.074,0,4.091-1.076,5.202-3.001C239.352,293.737,238.369,290.068,235.499,288.411z"/>
</svg>
