<svg version="1.1" id="Icons" xmlns="http://www.w3.org/2000/svg" xmlns:xlink="http://www.w3.org/1999/xlink" x="0px" y="0px"
	 viewBox="0 0 313.92 313.92" style="enable-background:new 0 0 313.92 313.92;" xml:space="preserve">
<style type="text/css">
	.st0{fill:#FF9838;}
	.st1{fill:#B6BBBF;}
	.st2{fill:#888A8C;}
	.st3{fill:#00AEBD;}
</style>
<g>
	<g>
		<g>
			<path class="st1" d="M157.176,64.105c19.059,0,37.259,8.195,49.933,22.484l4.035,4.55l6.055-0.564
				c1.773-0.165,3.425-0.245,5.049-0.245c29.567,0,53.621,24.054,53.621,53.621c0,29.567-24.054,53.621-53.621,53.621H71.986
				c-18.592,0-33.718-15.126-33.718-33.719c0-18.592,15.126-33.718,33.718-33.718c1.799,0,3.636,0.15,5.459,0.447l11.94,1.939
				l1.845-11.955c2.401-15.566,10.326-29.85,22.314-40.221C125.65,69.872,141.145,64.105,157.176,64.105 M157.176,52.105
				c-39.367,0-71.983,28.894-77.806,66.631c-2.404-0.391-4.868-0.602-7.384-0.602c-25.249,0-45.718,20.469-45.718,45.718
				c0,25.25,20.469,45.719,45.718,45.719h150.261c36.242,0,65.621-29.379,65.621-65.621c0-36.241-29.379-65.621-65.621-65.621
				c-2.079,0-4.132,0.108-6.161,0.297C201.662,62.365,180.622,52.105,157.176,52.105L157.176,52.105z"/>
		</g>
	</g>
</g>
<path class="st3" d="M188.503,286.08l-19.758-11.365l19.722-11.43c2.867-1.661,3.844-5.333,2.183-8.199
	c-1.661-2.867-5.331-3.845-8.2-2.184l-19.722,11.43l-0.037-22.794c-0.006-3.311-2.69-5.99-6-5.99c-0.003,0-0.007,0-0.01,0
	c-3.313,0.005-5.995,2.695-5.99,6.01l0.037,22.793l-19.759-11.365c-2.872-1.651-6.54-0.663-8.192,2.21
	c-1.652,2.872-0.663,6.54,2.21,8.193l19.758,11.365l-19.722,11.429c-2.867,1.661-3.844,5.333-2.183,8.199
	c1.113,1.921,3.127,2.993,5.197,2.993c1.021,0,2.056-0.261,3.003-0.81l19.721-11.429l0.037,22.793c0.006,3.31,2.69,5.99,6,5.99
	c0.003,0,0.007,0,0.01,0c3.313-0.005,5.995-2.695,5.99-6.01l-0.037-22.794l19.76,11.365c0.942,0.542,1.971,0.8,2.985,0.8
	c2.077,0,4.097-1.079,5.207-3.009C192.365,291.4,191.376,287.731,188.503,286.08z"/>
<path class="st3" d="M91.619,276.364l-14.11-8.147l14.11-8.146c2.87-1.657,3.853-5.327,2.196-8.196
	c-1.655-2.868-5.325-3.852-8.196-2.196l-14.111,8.147v-16.294c0-3.313-2.687-6-6-6c-3.313,0-6,2.687-6,6v16.293l-14.11-8.146
	c-2.871-1.656-6.539-0.672-8.196,2.196c-1.656,2.87-0.674,6.539,2.196,8.196l14.11,8.146l-14.11,8.147
	c-2.87,1.657-3.853,5.327-2.196,8.196c1.111,1.925,3.128,3.001,5.202,3.001c1.018,0,2.05-0.259,2.994-0.805l14.11-8.146v16.293
	c0,3.314,2.687,6,6,6c3.313,0,6-2.686,6-6v-16.294l14.111,8.147c0.945,0.545,1.977,0.805,2.994,0.805
	c2.074,0,4.091-1.076,5.202-3.001C95.472,281.69,94.489,278.021,91.619,276.364z"/>
<path class="st3" d="M274.493,276.364l-14.11-8.147l14.11-8.146c2.87-1.657,3.853-5.327,2.196-8.196
	c-1.656-2.868-5.327-3.852-8.196-2.196l-14.11,8.146v-16.293c0-3.313-2.686-6-6-6c-3.313,0-6,2.687-6,6v16.294l-14.111-8.147
	c-2.872-1.656-6.539-0.672-8.196,2.196c-1.656,2.87-0.674,6.539,2.196,8.196l14.11,8.146l-14.11,8.147
	c-2.87,1.657-3.853,5.327-2.196,8.196c1.111,1.925,3.128,3.001,5.202,3.001c1.018,0,2.05-0.259,2.994-0.805l14.111-8.147v16.294
	c0,3.314,2.687,6,6,6c3.314,0,6-2.686,6-6V278.61l14.11,8.146c0.945,0.545,1.977,0.805,2.994,0.805c2.074,0,4.091-1.076,5.202-3.001
	C278.346,281.69,277.363,278.021,274.493,276.364z"/>
</svg>
