<svg version="1.1" id="Icons" xmlns="http://www.w3.org/2000/svg" xmlns:xlink="http://www.w3.org/1999/xlink" x="0px" y="0px"
	 viewBox="0 0 313.92 313.92" style="enable-background:new 0 0 313.92 313.92;" xml:space="preserve">
<style type="text/css">
	.st0{fill:#FF9838;}
	.st1{fill:#B6BBBF;}
	.st2{fill:#888A8C;}
	.st3{fill:#00AEBD;}
</style>
<g>
	<g>
		<path class="st0" d="M91.658,38.861c-3.313,0-6-2.687-6-6V5.657c0-3.313,2.687-6,6-6s6,2.686,6,6v27.204
			C97.658,36.175,94.972,38.861,91.658,38.861z"/>
	</g>
	<g>
		<path class="st0" d="M50.482,55.917c-1.536,0-3.071-0.586-4.243-1.758L27.003,34.923c-2.343-2.343-2.343-6.142,0-8.484
			c2.343-2.344,6.143-2.344,8.485,0l19.236,19.236c2.343,2.343,2.343,6.142,0,8.484C53.554,55.331,52.018,55.917,50.482,55.917z"/>
	</g>
	<g>
		<path class="st0" d="M33.427,97.093H6.223c-3.313,0-6-2.687-6-6c0-3.313,2.687-6,6-6h27.204c3.313,0,6,2.687,6,6
			C39.427,94.406,36.74,97.093,33.427,97.093z"/>
	</g>
	<path class="st0" d="M61.155,125.395c3.446-0.979,7.077-1.514,10.832-1.514c2.121,0,4.281,0.177,6.42,0.523l5.97,0.971l0.167-1.086
		c-15.214-3.275-26.653-16.827-26.653-33.006c0-18.619,15.147-33.767,33.767-33.767c10.375,0,19.668,4.706,25.867,12.093
		c3.427-2.229,7.029-4.151,10.762-5.767c-8.349-11.127-21.648-18.326-36.629-18.326c-25.276,0-45.767,20.49-45.767,45.767
		C45.892,104.84,51.79,117.014,61.155,125.395z"/>
</g>
<g>
	<g>
		<path class="st1" d="M157.176,63.852c19.059,0,37.258,8.195,49.932,22.484l4.035,4.55l6.055-0.564
			c1.773-0.165,3.425-0.245,5.049-0.245c29.566,0,53.621,24.055,53.621,53.621c0,29.566-24.054,53.62-53.621,53.62H71.987
			c-18.593,0-33.719-15.126-33.719-33.718c0-18.593,15.126-33.719,33.719-33.719c1.797,0,3.634,0.15,5.459,0.446l11.939,1.938
			l1.844-11.953c2.401-15.566,10.327-29.851,22.315-40.222C125.65,69.619,141.145,63.852,157.176,63.852 M157.176,51.852
			c-39.367,0-71.984,28.894-77.806,66.631c-2.404-0.391-4.869-0.602-7.383-0.602c-25.25,0-45.719,20.469-45.719,45.719
			c0,25.249,20.469,45.718,45.719,45.718h150.26c36.241,0,65.621-29.379,65.621-65.62c0-36.241-29.379-65.621-65.621-65.621
			c-2.079,0-4.132,0.108-6.162,0.297C201.662,62.111,180.622,51.852,157.176,51.852L157.176,51.852z"/>
	</g>
</g>
<path class="st3" d="M188.503,286.062l-19.759-11.365l19.722-11.429c2.867-1.661,3.845-5.333,2.183-8.2
	c-1.662-2.866-5.333-3.844-8.2-2.183l-19.722,11.429l-0.037-22.794c-0.005-3.311-2.69-5.99-6-5.99c-0.003,0-0.006,0-0.01,0
	c-3.313,0.005-5.996,2.696-5.99,6.01l0.037,22.794l-19.759-11.364c-2.871-1.649-6.54-0.663-8.193,2.21
	c-1.652,2.872-0.663,6.54,2.21,8.192l19.758,11.364l-19.721,11.429c-2.867,1.661-3.845,5.333-2.183,8.2
	c1.113,1.92,3.126,2.992,5.197,2.992c1.021,0,2.056-0.261,3.003-0.81l19.722-11.429l0.037,22.794c0.005,3.311,2.69,5.99,6,5.99
	c0.003,0,0.006,0,0.01,0c3.313-0.005,5.996-2.696,5.99-6.01l-0.037-22.794l19.758,11.365c0.943,0.542,1.971,0.8,2.986,0.8
	c2.077,0,4.097-1.08,5.207-3.01C192.364,291.383,191.375,287.715,188.503,286.062z"/>
<path class="st3" d="M91.619,276.364l-14.111-8.146l14.111-8.147c2.87-1.657,3.853-5.326,2.196-8.196
	c-1.657-2.87-5.327-3.851-8.196-2.196l-14.111,8.147V241.53c0-3.314-2.687-6-6-6c-3.313,0-6,2.686-6,6v16.294l-14.111-8.146
	c-2.869-1.657-6.539-0.674-8.196,2.196c-1.657,2.87-0.673,6.539,2.196,8.196l14.111,8.147l-14.111,8.146
	c-2.87,1.657-3.853,5.326-2.196,8.196c1.111,1.925,3.128,3.001,5.202,3.001c1.018,0,2.05-0.26,2.995-0.805l14.111-8.147v16.294
	c0,3.314,2.687,6,6,6c3.313,0,6-2.686,6-6v-16.294l14.111,8.147c0.945,0.546,1.977,0.805,2.995,0.805
	c2.073,0,4.09-1.076,5.202-3.001C95.472,281.69,94.489,278.022,91.619,276.364z"/>
<path class="st3" d="M274.493,276.364l-14.111-8.146l14.111-8.147c2.87-1.657,3.853-5.326,2.196-8.196
	c-1.657-2.87-5.327-3.851-8.196-2.196l-14.111,8.147V241.53c0-3.314-2.686-6-6-6c-3.313,0-6,2.686-6,6v16.294l-14.111-8.146
	c-2.868-1.657-6.539-0.674-8.196,2.196c-1.657,2.87-0.673,6.539,2.196,8.196l14.111,8.147l-14.111,8.146
	c-2.87,1.657-3.853,5.326-2.196,8.196c1.111,1.925,3.128,3.001,5.202,3.001c1.018,0,2.05-0.26,2.995-0.805l14.111-8.147v16.294
	c0,3.314,2.687,6,6,6c3.314,0,6-2.686,6-6v-16.294l14.111,8.147c0.945,0.546,1.977,0.805,2.995,0.805
	c2.073,0,4.09-1.076,5.202-3.001C278.346,281.69,277.363,278.022,274.493,276.364z"/>
</svg>
