<svg version="1.1" id="Icons" xmlns="http://www.w3.org/2000/svg" xmlns:xlink="http://www.w3.org/1999/xlink" x="0px" y="0px"
	 viewBox="0 0 313.92 313.92" style="enable-background:new 0 0 313.92 313.92;" xml:space="preserve">
<style type="text/css">
	.st0{fill:#FF9838;}
	.st1{fill:#B6BBBF;}
	.st2{fill:#888A8C;}
	.st3{fill:#00AEBD;}
</style>
<g>
	<path class="st3" d="M183.143,250.057c-0.001,0-0.003,0-0.004,0c-2.053-0.002-3.963-1.053-5.063-2.787l-55.271-87.174
		c-1.243-1.961-1.244-4.463,0-6.425l55.202-87.106c1.099-1.733,3.007-2.785,5.06-2.788c0.002,0,0.005,0,0.008,0
		c2.05,0,3.957,1.046,5.059,2.775l55.52,87.107c1.253,1.965,1.254,4.479,0.003,6.445l-55.45,87.174
		C187.104,249.008,185.194,250.057,183.143,250.057z M134.975,156.882l48.176,75.982l48.329-75.979l-48.392-75.924L134.975,156.882z
		"/>
</g>
<g>
	<path class="st3" d="M104.602,125.532c-0.002,0-0.003,0-0.004,0c-2.053-0.002-3.963-1.053-5.063-2.787L73.521,81.716
		c-1.243-1.961-1.244-4.464-0.001-6.425l25.981-40.997c1.099-1.733,3.007-2.785,5.06-2.788c0.002,0,0.005,0,0.008,0
		c2.05,0,3.957,1.046,5.06,2.775l26.13,40.997c1.253,1.965,1.254,4.479,0.003,6.444l-26.098,41.029
		C108.563,124.483,106.654,125.532,104.602,125.532z M85.692,78.502l18.919,29.838l18.977-29.834l-19.003-29.814L85.692,78.502z"/>
</g>
<g>
	<path class="st3" d="M123.702,276.796c-0.002,0-0.003,0-0.004,0c-2.053-0.002-3.963-1.053-5.063-2.787l-13.627-21.493
		c-1.243-1.961-1.244-4.463,0-6.425l13.61-21.477c1.099-1.733,3.007-2.785,5.06-2.788c0.002,0,0.005,0,0.008,0
		c2.05,0,3.958,1.046,5.06,2.775l13.689,21.477c1.253,1.965,1.254,4.479,0.003,6.445l-13.672,21.493
		C127.663,275.747,125.753,276.796,123.702,276.796z M117.178,249.302l6.532,10.302l6.55-10.298l-6.561-10.294L117.178,249.302z"/>
</g>
</svg>
