<svg version="1.1" id="Icons" xmlns="http://www.w3.org/2000/svg" xmlns:xlink="http://www.w3.org/1999/xlink" x="0px" y="0px"
	 viewBox="0 0 313.92 313.92" style="enable-background:new 0 0 313.92 313.92;" xml:space="preserve">
<style type="text/css">
	.st0{fill:#FF9838;}
	.st1{fill:#B6BBBF;}
	.st2{fill:#888A8C;}
	.st3{fill:#00AEBD;}
</style>
<g>
	<g>
		<g>
			<g>
				<path class="st1" d="M154.568,64.105c19.059,0,37.258,8.195,49.932,22.484l4.035,4.55l6.055-0.564
					c1.775-0.165,3.426-0.245,5.049-0.245c29.566,0,53.621,24.054,53.621,53.621c0,29.566-24.055,53.62-53.621,53.62H69.379
					c-18.593,0-33.719-15.126-33.719-33.719c0-18.592,15.126-33.719,33.719-33.719c1.797,0,3.634,0.15,5.459,0.447l11.939,1.939
					l1.844-11.954c2.402-15.565,10.327-29.85,22.315-40.221C123.042,69.873,138.538,64.105,154.568,64.105 M154.568,52.105
					c-39.367,0-71.983,28.894-77.806,66.631c-2.404-0.391-4.869-0.603-7.383-0.603c-25.25,0-45.719,20.47-45.719,45.719
					c0,25.25,20.469,45.719,45.719,45.719h150.26c36.242,0,65.621-29.379,65.621-65.62c0-36.242-29.379-65.621-65.621-65.621
					c-2.078,0-4.131,0.108-6.16,0.297C199.055,62.365,178.014,52.105,154.568,52.105L154.568,52.105z"/>
			</g>
		</g>
	</g>
	<path class="st3" d="M213.393,274.606c-11.027,0-20-8.972-20-20c0-11.028,8.973-20,20-20c11.029,0,20,8.972,20,20
		C233.393,265.635,224.422,274.606,213.393,274.606z M213.393,246.606c-4.41,0-8,3.589-8,8c0,4.411,3.59,8,8,8c4.412,0,8-3.589,8-8
		C221.393,250.195,217.805,246.606,213.393,246.606z"/>
	<path class="st3" d="M96.051,313.92c-11.028,0-20-8.972-20-20c0-11.028,8.972-20,20-20s20,8.972,20,20
		C116.051,304.948,107.08,313.92,96.051,313.92z M96.051,285.92c-4.411,0-8,3.589-8,8s3.589,8,8,8c4.411,0,8-3.589,8-8
		S100.462,285.92,96.051,285.92z"/>
	<path class="st3" d="M154.722,294.412c-11.028,0-20-8.972-20-20c0-11.028,8.972-20,20-20c11.028,0,20,8.972,20,20
		C174.723,285.44,165.75,294.412,154.722,294.412z M154.722,266.412c-4.411,0-8,3.589-8,8s3.589,8,8,8c4.411,0,8-3.589,8-8
		S159.133,266.412,154.722,266.412z"/>
</g>
</svg>
