<svg version="1.1" id="Icons" xmlns="http://www.w3.org/2000/svg" xmlns:xlink="http://www.w3.org/1999/xlink" x="0px" y="0px"
	 viewBox="0 0 313.92 313.92" style="enable-background:new 0 0 313.92 313.92;" xml:space="preserve">
<style type="text/css">
	.st0{fill:#FF9838;}
	.st1{fill:#B6BBBF;}
	.st2{fill:#888A8C;}
	.st3{fill:#00AEBD;}
</style>
<g>
	<g>
		<g>
			<path class="st1" d="M157.067,64.105c19.059,0,37.259,8.195,49.933,22.484l4.035,4.55l6.056-0.564
				c1.773-0.165,3.425-0.245,5.048-0.245c29.566,0,53.621,24.054,53.621,53.621c0,29.566-24.055,53.62-53.621,53.62H71.879
				c-18.593,0-33.719-15.126-33.719-33.719c0-18.592,15.126-33.719,33.719-33.719c1.797,0,3.634,0.15,5.459,0.447l11.938,1.939
				l1.845-11.954c2.401-15.565,10.327-29.85,22.315-40.221C125.542,69.873,141.037,64.105,157.067,64.105 M157.067,52.105
				c-39.367,0-71.983,28.894-77.806,66.631c-2.404-0.391-4.869-0.603-7.383-0.603c-25.25,0-45.719,20.47-45.719,45.719
				c0,25.25,20.469,45.719,45.719,45.719h150.26c36.241,0,65.621-29.379,65.621-65.62c0-36.242-29.38-65.621-65.621-65.621
				c-2.079,0-4.132,0.108-6.161,0.297C201.554,62.365,180.514,52.105,157.067,52.105L157.067,52.105z"/>
		</g>
	</g>
</g>
<g>
	<path class="st3" d="M133,287.671c-1.052,0-2.116-0.276-3.084-0.857c-2.84-1.706-3.76-5.393-2.054-8.233l24.142-40.192
		c1.706-2.841,5.391-3.761,8.233-2.054c2.84,1.706,3.76,5.393,2.054,8.233l-24.142,40.192
		C137.024,286.633,135.037,287.671,133,287.671z"/>
</g>
<g>
	<g>
		<path class="st3" d="M107.864,264.189c-1.052,0-2.116-0.276-3.084-0.858c-2.84-1.706-3.76-5.392-2.054-8.233l10.037-16.71
			c1.706-2.841,5.391-3.761,8.233-2.054c2.84,1.706,3.76,5.393,2.054,8.233l-10.037,16.71
			C111.889,263.15,109.901,264.189,107.864,264.189z"/>
	</g>
	<g>
		<circle class="st3" cx="93.766" cy="281.67" r="6.247"/>
	</g>
</g>
<g>
	<circle class="st3" cx="117.249" cy="307.673" r="6.247"/>
</g>
<path class="st3" d="M196.77,287.617c-0.624,0-1.251-0.112-1.837-0.329h-0.053l-0.331-0.158c-0.02-0.01-0.04-0.019-0.061-0.028
	l-0.329-0.171c-1.469-0.828-2.452-2.292-2.656-3.982l-3.28-27.044c-0.247-2.03,0.711-4.044,2.442-5.131l23.037-14.495
	c1.488-0.936,3.427-1.062,5.026-0.336l0.407,0.206c1.467,0.825,2.452,2.285,2.659,3.972l3.346,27.056
	c0.251,2.04-0.71,4.061-2.45,5.148l-23.105,14.482C198.742,287.336,197.768,287.617,196.77,287.617z M199.162,257.965l1.868,15.413
	l13.164-8.251l-1.906-15.419L199.162,257.965z"/>
</svg>
