<svg version="1.1" id="Icons" xmlns="http://www.w3.org/2000/svg" xmlns:xlink="http://www.w3.org/1999/xlink" x="0px" y="0px"
	 viewBox="0 0 313.92 313.92" style="enable-background:new 0 0 313.92 313.92;" xml:space="preserve">
<style type="text/css">
	.st0{fill:#FF9838;}
	.st1{fill:#B6BBBF;}
	.st2{fill:#888A8C;}
	.st3{fill:#00AEBD;}
</style>
<g>
	<g>
		<g>
			<path class="st1" d="M157.176,64.105c19.059,0,37.259,8.195,49.933,22.484l4.035,4.55l6.055-0.564
				c1.773-0.165,3.425-0.245,5.049-0.245c29.567,0,53.621,24.055,53.621,53.621s-24.054,53.62-53.621,53.62H71.986
				c-18.592,0-33.718-15.126-33.718-33.719c0-18.592,15.126-33.718,33.718-33.718c1.799,0,3.636,0.149,5.459,0.446l11.94,1.939
				l1.845-11.954c2.401-15.566,10.326-29.851,22.314-40.222C125.65,69.873,141.145,64.105,157.176,64.105 M157.176,52.105
				c-39.367,0-71.983,28.894-77.806,66.631c-2.404-0.391-4.868-0.601-7.384-0.601c-25.249,0-45.718,20.469-45.718,45.718
				c0,25.25,20.469,45.719,45.718,45.719h150.261c36.242,0,65.621-29.379,65.621-65.62c0-36.242-29.379-65.621-65.621-65.621
				c-2.079,0-4.132,0.108-6.161,0.297C201.662,62.365,180.622,52.105,157.176,52.105L157.176,52.105z"/>
		</g>
	</g>
</g>
<g>
	<path class="st3" d="M235.066,286.079l-19.759-11.364l19.723-11.43c2.866-1.661,3.844-5.333,2.183-8.199
		c-1.661-2.867-5.331-3.845-8.2-2.184l-19.721,11.429l-0.037-22.794c-0.006-3.311-2.69-5.99-6-5.99c-0.003,0-0.007,0-0.01,0
		c-3.314,0.005-5.995,2.696-5.99,6.01l0.037,22.796l-19.76-11.366c-2.872-1.652-6.539-0.662-8.192,2.21
		c-1.652,2.872-0.663,6.54,2.21,8.192l19.758,11.365l-19.722,11.428c-2.866,1.662-3.844,5.333-2.183,8.2
		c1.113,1.92,3.127,2.992,5.197,2.992c1.02,0,2.056-0.261,3.003-0.81l19.722-11.429l0.037,22.794c0.006,3.311,2.69,5.99,6,5.99
		c0.003,0,0.007,0,0.01,0c3.313-0.005,5.995-2.696,5.99-6.01l-0.037-22.793l19.759,11.364c0.942,0.542,1.971,0.8,2.985,0.8
		c2.077,0,4.097-1.08,5.207-3.01C238.929,291.399,237.939,287.731,235.066,286.079z"/>
	<g>
		<path class="st3" d="M98.194,313.92c-1.052,0-2.116-0.276-3.083-0.857c-2.841-1.706-3.761-5.393-2.055-8.232l39.896-66.426
			c1.706-2.84,5.394-3.761,8.232-2.055c2.841,1.706,3.761,5.393,2.055,8.232l-39.897,66.426
			C102.219,312.882,100.231,313.92,98.194,313.92z"/>
	</g>
	<g>
		<path class="st3" d="M73.869,287.698c-1.052,0-2.116-0.276-3.084-0.857c-2.84-1.706-3.76-5.393-2.054-8.233l24.142-40.193
			c1.705-2.84,5.391-3.76,8.233-2.054c2.84,1.706,3.76,5.393,2.054,8.233l-24.142,40.193
			C77.894,286.66,75.906,287.698,73.869,287.698z"/>
	</g>
</g>
</svg>
