<svg version="1.1" id="Icons" xmlns="http://www.w3.org/2000/svg" xmlns:xlink="http://www.w3.org/1999/xlink" x="0px" y="0px"
	 viewBox="0 0 313.92 313.92" style="enable-background:new 0 0 313.92 313.92;" xml:space="preserve">
<style type="text/css">
	.st0{fill:#FF9838;}
	.st1{fill:#B6BBBF;}
	.st2{fill:#888A8C;}
	.st3{fill:#00AEBD;}
</style>
<path class="st0" d="M162.744,216.429V48.962c0-3.313-2.686-6-6-6c-3.313,0-6,2.687-6,6V216.41
	c-11.575,2.698-20.2,13.073-20.2,25.47c0,14.448,11.712,26.16,26.16,26.16c14.448,0,26.16-11.712,26.16-26.16
	C182.863,229.513,174.278,219.156,162.744,216.429z M156.704,256.04c-7.808,0-14.16-6.353-14.16-14.16s6.352-14.159,14.16-14.159
	s14.16,6.352,14.16,14.159S164.511,256.04,156.704,256.04z"/>
<path class="st2" d="M188.768,192.53v-55.691h14.054c3.314,0,6-2.686,6-6c0-3.313-2.686-6-6-6h-14.054v-27.24h14.054
	c3.314,0,6-2.687,6-6c0-3.313-2.686-6-6-6h-14.054V58.359h14.054c3.314,0,6-2.687,6-6c0-3.314-2.686-6-6-6h-14.054v-0.389
	c0-17.685-14.337-32.023-32.024-32.023c-17.686,0-32.023,14.338-32.023,32.023v146.56c-16.179,10.501-26.891,28.714-26.891,49.439
	c0,32.537,26.377,58.914,58.914,58.914c32.538,0,58.914-26.377,58.914-58.914C215.658,221.244,204.947,203.031,188.768,192.53z
	 M156.744,288.884c-25.868,0-46.914-21.046-46.914-46.914c0-15.947,8.009-30.667,21.424-39.374l5.467-3.548v-6.518V45.971
	c0-11.041,8.982-20.023,20.023-20.023c11.041,0,20.024,8.982,20.024,20.023v146.56v6.518l5.466,3.548
	c13.415,8.707,21.424,23.427,21.424,39.374C203.658,267.838,182.613,288.884,156.744,288.884z"/>
</svg>
