<svg version="1.1" id="Icons" xmlns="http://www.w3.org/2000/svg" xmlns:xlink="http://www.w3.org/1999/xlink" x="0px" y="0px"
	 viewBox="0 0 313.92 313.92" style="enable-background:new 0 0 313.92 313.92;" xml:space="preserve">
<style type="text/css">
	.st0{fill:#FF9838;}
	.st1{fill:#B6BBBF;}
	.st2{fill:#888A8C;}
	.st3{fill:#00AEBD;}
</style>
<g>
	<path class="st1" d="M236.121,241.483c-3.313,0-6-2.686-6-6c0-18.331-14.914-33.245-33.246-33.245H6c-3.314,0-6-2.686-6-6
		c0-3.313,2.686-6,6-6h190.875c24.949,0,45.246,20.297,45.246,45.245C242.121,238.797,239.435,241.483,236.121,241.483z"/>
</g>
<g>
	<path class="st1" d="M150.96,123.765H6c-3.313,0-6-2.687-6-6c0-3.313,2.687-6,6-6h144.96c18.332,0,33.246-14.914,33.246-33.246
		c0-18.331-14.914-33.245-33.246-33.245c-18.331,0-33.246,14.914-33.246,33.245c0,3.313-2.686,6-6,6c-3.313,0-6-2.687-6-6
		c0-24.948,20.297-45.245,45.246-45.245c24.949,0,45.246,20.297,45.246,45.245C196.206,103.468,175.909,123.765,150.96,123.765z"/>
</g>
<g>
	<path class="st1" d="M268.928,163.004H84.588c-3.313,0-6-2.687-6-6c0-3.314,2.687-6,6-6h184.34
		c18.331,0,33.245-14.914,33.245-33.245c0-18.332-14.914-33.246-33.245-33.246c-18.332,0-33.246,14.914-33.246,33.246
		c0,3.314-2.686,6-6,6c-3.313,0-6-2.686-6-6c0-24.949,20.297-45.246,45.246-45.246c24.948,0,45.245,20.297,45.245,45.246
		C314.173,142.707,293.876,163.004,268.928,163.004z"/>
</g>
</svg>
