<svg version="1.1" id="Icons" xmlns="http://www.w3.org/2000/svg" xmlns:xlink="http://www.w3.org/1999/xlink" x="0px" y="0px"
	 viewBox="0 0 313.92 313.92" style="enable-background:new 0 0 313.92 313.92;" xml:space="preserve">
<style type="text/css">
	.st0{fill:#FF9838;}
	.st1{fill:#B6BBBF;}
	.st2{fill:#888A8C;}
	.st3{fill:#00AEBD;}
</style>
<g>
	<g>
		<path class="st2" d="M117.06,45.312c-19.352,41.776-17.454,90.684,5.883,131.105c12.733,22.053,31.122,40.293,53.18,52.75
			c17.658,9.973,37.292,16.065,57.427,17.891c-5.454,4.638-11.341,8.787-17.606,12.404c-18.001,10.394-38.434,15.887-59.088,15.887
			c-20.567,0-40.892-5.375-58.775-15.545c-18.413-10.471-33.721-25.799-44.269-44.329c-7.711-13.545-12.521-28.356-14.299-44.022
			c-1.72-15.155-0.54-30.41,3.504-45.342c4.045-14.931,10.726-28.696,19.86-40.913c9.44-12.629,21.069-22.989,34.562-30.794
			C103.727,50.766,110.289,47.728,117.06,45.312 M130.537,29.236c-0.375,0-0.761,0.04-1.155,0.125
			c-13.01,2.79-25.811,7.632-37.951,14.655C30.39,79.324,8.498,160.129,43.383,221.412c24.067,42.279,68.149,65.937,113.472,65.937
			c22.129,0,44.547-5.636,65.088-17.495c12.113-6.992,22.676-15.639,31.574-25.484c3.073-3.401,0.639-8.768-3.901-8.768
			c-0.046,0-0.091,0.001-0.137,0.002c-1.025,0.023-2.056,0.036-3.08,0.036c-45.073,0-88.906-23.383-113.064-65.223
			c-24.705-42.791-22.399-93.759,1.618-133.176C137.152,33.633,134.466,29.236,130.537,29.236L130.537,29.236z"/>
	</g>
</g>
</svg>
