<svg version="1.1" id="Icons" xmlns="http://www.w3.org/2000/svg" xmlns:xlink="http://www.w3.org/1999/xlink" x="0px" y="0px"
	 viewBox="0 0 313.92 313.92" style="enable-background:new 0 0 313.92 313.92;" xml:space="preserve">
<style type="text/css">
	.st0{fill:#FF9838;}
	.st1{fill:#B6BBBF;}
	.st2{fill:#888A8C;}
	.st3{fill:#00AEBD;}
</style>
<g>
	<path class="st2" d="M31.351,176.445l5.97,0.969l0.922-5.977c0.218-1.414,0.518-2.799,0.879-4.159
		c-1.078-13.778,0.223-27.606,3.896-41.168c4.044-14.931,10.726-28.696,19.859-40.913c9.44-12.629,21.069-22.989,34.562-30.794
		c6.289-3.638,12.851-6.676,19.621-9.091c-15.713,33.921-17.415,72.543-5.007,107.507l2.245-0.211
		c1.089-0.102,2.105-0.151,3.11-0.151c2.639,0,5.202,0.319,7.663,0.906c-15.465-38.79-11.015-81.827,9.882-116.122
		c2.199-3.608-0.487-8.005-4.415-8.005c-0.376,0-0.762,0.04-1.156,0.125c-13.01,2.79-25.811,7.632-37.951,14.655
		c-46.804,27.072-70.588,80.893-63.413,132.151C29.117,176.174,30.237,176.265,31.351,176.445z"/>
	<path class="st2" d="M249.615,235.602c-0.046,0-0.091,0.001-0.137,0.002c-1.025,0.023-2.056,0.036-3.08,0.036
		c-36.242,0-71.674-15.129-96.729-42.805c-0.979,4.33-2.808,8.339-5.303,11.845c9.354,9.595,20.028,17.865,31.755,24.487
		c17.658,9.973,37.292,16.065,57.427,17.891c-5.454,4.638-11.341,8.787-17.606,12.404c-18.001,10.394-38.434,15.887-59.087,15.887
		c-20.568,0-40.893-5.375-58.775-15.545c-17.359-9.871-31.953-24.063-42.406-41.181H41.843c0.501,0.934,1.014,1.863,1.54,2.789
		c24.067,42.279,68.149,65.937,113.473,65.937c22.128,0,44.546-5.636,65.087-17.495c12.113-6.992,22.676-15.639,31.574-25.484
		C256.59,240.968,254.155,235.602,249.615,235.602z"/>
</g>
<g>
	<g>
		<path class="st1" d="M77.967,142.838c9.964,0,19.479,4.286,26.108,11.76l4.036,4.55l6.056-0.566
			c0.902-0.084,1.738-0.125,2.555-0.125c14.934,0,27.083,12.15,27.083,27.083c0,14.934-12.149,27.083-27.083,27.083H27.229
			c-8.397,0-15.229-6.832-15.229-15.229c0-8.398,6.832-15.23,15.229-15.23c0.811,0,1.643,0.068,2.473,0.203l11.94,1.94l1.845-11.955
			c1.255-8.134,5.399-15.6,11.67-21.024C61.483,145.854,69.585,142.838,77.967,142.838 M77.967,130.838
			c-23.446,0-42.872,17.209-46.34,39.685c-1.432-0.233-2.899-0.358-4.397-0.358C12.191,170.164,0,182.355,0,197.394
			s12.191,27.229,27.229,27.229h89.492c21.585,0,39.083-17.498,39.083-39.083c0-21.585-17.498-39.083-39.083-39.083
			c-1.237,0-2.461,0.064-3.669,0.178C104.462,136.949,91.931,130.838,77.967,130.838L77.967,130.838z"/>
	</g>
</g>
</svg>
