<svg version="1.1" id="Icons" xmlns="http://www.w3.org/2000/svg" xmlns:xlink="http://www.w3.org/1999/xlink" x="0px" y="0px"
	 viewBox="0 0 313.92 313.92" style="enable-background:new 0 0 313.92 313.92;" xml:space="preserve">
<style type="text/css">
	.st0{fill:#FF9838;}
	.st1{fill:#B6BBBF;}
	.st2{fill:#888A8C;}
	.st3{fill:#00AEBD;}
</style>
<g>
	<g>
		<path class="st2" d="M36.683,180.677c1.425,0,2.874,0.122,4.317,0.327c-0.621-3.146-1.122-6.33-1.488-9.551
			c-1.719-15.156-0.54-30.411,3.504-45.342c4.044-14.932,10.727-28.697,19.86-40.914c9.441-12.629,21.069-22.988,34.562-30.793
			c6.288-3.638,12.85-6.677,19.621-9.092c-12.05,26.014-15.856,54.791-11.382,82.563c4.224,0.063,8.39,0.599,12.436,1.572
			c-6.032-31.902,0.164-64.839,16.84-92.207c2.199-3.608-0.487-8.005-4.415-8.005c-0.375,0-0.761,0.04-1.156,0.125
			c-13.01,2.79-25.811,7.633-37.952,14.655C42.946,72.061,19.166,128.81,28.914,181.68
			C31.396,181.027,33.999,180.677,36.683,180.677z"/>
		<path class="st2" d="M249.615,235.602c-0.045,0-0.091,0.001-0.137,0.002c-1.025,0.025-2.055,0.036-3.08,0.036
			c-18.356,0-36.506-3.88-53.206-11.304c-2.697,3.369-5.852,6.353-9.371,8.862c15.59,7.588,32.473,12.296,49.727,13.859
			c-5.454,4.638-11.34,8.787-17.606,12.404c-18.002,10.394-38.434,15.887-59.087,15.887c-20.567,0-40.892-5.375-58.775-15.545
			c-8.718-4.958-16.729-11.017-23.88-17.977H57.742c25.162,29.395,61.708,45.521,99.113,45.521c22.128,0,44.546-5.635,65.087-17.494
			c12.113-6.993,22.675-15.64,31.574-25.485C256.589,240.969,254.156,235.602,249.615,235.602z"/>
	</g>
	<g>
		<g>
			<path class="st1" d="M104.834,133.854c14.561,0,28.466,6.262,38.15,17.181l4.036,4.55l6.056-0.564
				c1.342-0.125,2.591-0.186,3.815-0.186c22.33,0,40.497,18.166,40.497,40.496s-18.167,40.496-40.497,40.496H36.683
				c-13.551,0-24.575-11.023-24.575-24.574s11.024-24.575,24.575-24.575c1.309,0,2.649,0.11,3.982,0.326l11.939,1.94l1.845-11.955
				c1.834-11.891,7.89-22.804,17.05-30.727C80.748,138.26,92.586,133.854,104.834,133.854 M104.834,121.854
				c-31.494,0-57.587,23.115-62.245,53.305c-1.923-0.312-3.895-0.481-5.906-0.481c-20.2,0-36.575,16.375-36.575,36.575
				c0,20.199,16.375,36.574,36.575,36.574h120.208c28.993,0,52.497-23.503,52.497-52.496s-23.503-52.496-52.497-52.496
				c-1.663,0-3.306,0.086-4.929,0.237C140.423,130.062,123.591,121.854,104.834,121.854L104.834,121.854z"/>
		</g>
	</g>
</g>
</svg>
