<svg version="1.1" id="Icons" xmlns="http://www.w3.org/2000/svg" xmlns:xlink="http://www.w3.org/1999/xlink" x="0px" y="0px"
	 viewBox="0 0 313.92 313.92" style="enable-background:new 0 0 313.92 313.92;" xml:space="preserve">
<style type="text/css">
	.st0{fill:#FF9838;}
	.st1{fill:#B6BBBF;}
	.st2{fill:#888A8C;}
	.st3{fill:#00AEBD;}
</style>
<g>
	<g>
		<g>
			<path class="st1" d="M235.699,49.703c10.048,0,19.645,4.322,26.329,11.858l4.035,4.55l6.055-0.564
				c0.914-0.085,1.758-0.126,2.581-0.126c15.069,0,27.329,12.26,27.329,27.329c0,15.069-12.26,27.329-27.329,27.329h-90.058
				c-8.492,0-15.401-6.909-15.401-15.401s6.909-15.4,15.401-15.4c0.82,0,1.661,0.068,2.5,0.205l11.94,1.94l1.844-11.955
				c1.266-8.203,5.445-15.733,11.768-21.204C219.076,52.743,227.246,49.703,235.699,49.703 M235.699,37.703
				c-23.595,0-43.143,17.317-46.632,39.935c-1.441-0.233-2.918-0.36-4.425-0.36c-15.133,0-27.401,12.268-27.401,27.4
				c0,15.134,12.268,27.401,27.401,27.401h90.058c21.721,0,39.329-17.608,39.329-39.329s-17.608-39.329-39.329-39.329
				c-1.246,0-2.477,0.065-3.693,0.178C262.361,43.853,249.751,37.703,235.699,37.703L235.699,37.703z"/>
		</g>
	</g>
</g>
<g>
	<path class="st2" d="M249.615,235.602c-0.046,0-0.091,0.001-0.137,0.002c-1.025,0.025-2.055,0.036-3.079,0.036
		c-45.073,0-88.907-23.383-113.064-65.223c-24.705-42.791-22.399-93.759,1.618-133.176c2.199-3.608-0.487-8.005-4.416-8.005
		c-0.375,0-0.761,0.04-1.156,0.125c-13.01,2.79-25.811,7.633-37.952,14.655C30.39,79.324,8.498,160.129,43.382,221.412
		c0.372,0.652,0.763,1.287,1.144,1.932c3.13-2.569,6.695-4.531,10.506-5.805c-0.409-0.686-0.825-1.368-1.221-2.063
		c-7.711-13.546-12.522-28.357-14.298-44.022c-1.72-15.156-0.541-30.411,3.504-45.342c4.045-14.932,10.727-28.697,19.86-40.914
		c9.441-12.629,21.069-22.988,34.562-30.793c6.289-3.638,12.85-6.677,19.621-9.092c-19.351,41.776-17.454,90.684,5.884,131.105
		c12.732,22.053,31.121,40.294,53.179,52.751c17.658,9.972,37.291,16.064,57.426,17.89c-5.454,4.638-11.34,8.787-17.606,12.404
		c-18.002,10.394-38.434,15.887-59.087,15.887c-11.357,0-22.638-1.647-33.476-4.827c-1.481,4.348-4.709,7.884-8.848,9.778
		c13.579,4.639,27.887,7.049,42.324,7.049c22.128,0,44.546-5.635,65.087-17.494c12.113-6.993,22.675-15.64,31.574-25.485
		C256.589,240.969,254.156,235.602,249.615,235.602z"/>
	<g>
		<g>
			<path class="st1" d="M65.455,221.84c13.195,0,24.66,9.812,26.668,22.824l1.844,11.954l11.939-1.939
				c0.584-0.095,1.167-0.143,1.732-0.143c5.866,0,10.639,4.772,10.639,10.639c0,5.866-4.772,10.638-10.639,10.638H33.233
				c-11.3,0-20.494-9.193-20.494-20.493c0-11.3,9.193-20.493,20.494-20.493c0.615,0,1.249,0.031,1.937,0.096l6.056,0.564
				l4.036-4.551C50.389,225.155,57.749,221.84,65.455,221.84 M65.455,209.84c-11.61,0-22.028,5.081-29.17,13.134
				c-1.005-0.094-2.021-0.147-3.051-0.147c-17.946,0-32.494,14.548-32.494,32.493c0,17.946,14.548,32.493,32.494,32.493h74.404
				c12.503,0,22.639-10.135,22.639-22.638c0-12.503-10.136-22.639-22.639-22.639c-1.245,0-2.465,0.105-3.656,0.298
				C101.099,224.148,84.948,209.84,65.455,209.84L65.455,209.84z"/>
		</g>
	</g>
</g>
</svg>
