<svg version="1.1" id="Icons" xmlns="http://www.w3.org/2000/svg" xmlns:xlink="http://www.w3.org/1999/xlink" x="0px" y="0px"
	 viewBox="0 0 313.92 313.92" style="enable-background:new 0 0 313.92 313.92;" xml:space="preserve">
<style type="text/css">
	.st0{fill:#FF9838;}
	.st1{fill:#B6BBBF;}
	.st2{fill:#888A8C;}
	.st3{fill:#00AEBD;}
</style>
<path class="st2" d="M249.615,235.602c-0.046,0-0.092,0.001-0.138,0.002c-1.024,0.025-2.055,0.036-3.079,0.036
	c-45.073,0-88.907-23.383-113.064-65.223c-24.705-42.791-22.399-93.759,1.618-133.176c2.199-3.608-0.487-8.005-4.416-8.005
	c-0.375,0-0.761,0.04-1.156,0.125c-13.01,2.79-25.811,7.633-37.952,14.655C30.39,79.324,8.498,160.129,43.382,221.412
	c13.407,23.551,33.028,41.316,55.61,52.439h39.127c-14.032-2.244-27.625-6.988-40.039-14.048
	c-18.413-10.471-33.721-25.799-44.269-44.328c-7.711-13.546-12.521-28.357-14.298-44.022c-1.719-15.156-0.54-30.411,3.504-45.342
	c4.045-14.932,10.726-28.697,19.859-40.914c9.441-12.629,21.069-22.988,34.562-30.793c6.289-3.638,12.851-6.677,19.621-9.092
	c-19.352,41.776-17.454,90.684,5.883,131.105c12.732,22.053,31.121,40.294,53.179,52.751c17.658,9.972,37.292,16.064,57.426,17.89
	c-5.454,4.638-11.34,8.787-17.606,12.404c-12.562,7.253-26.309,12.11-40.486,14.39h39.011c2.516-1.245,5.01-2.574,7.476-3.997
	c12.113-6.993,22.676-15.64,31.574-25.485C256.59,240.969,254.156,235.602,249.615,235.602z"/>
<g>
	<path class="st1" d="M282.168,279.852H19.779c-3.313,0-6-2.686-6-6s2.687-6,6-6h262.389c3.313,0,6,2.686,6,6
		S285.482,279.852,282.168,279.852z"/>
</g>
<g>
	<path class="st1" d="M282.168,202.238H78.588c-3.313,0-6-2.686-6-6c0-3.313,2.687-6,6-6h203.58c3.313,0,6,2.687,6,6
		C288.168,199.552,285.482,202.238,282.168,202.238z"/>
</g>
<g>
	<path class="st1" d="M130.908,241.478H19.779c-3.313,0-6-2.687-6-6c0-3.314,2.687-6,6-6h111.129c3.313,0,6,2.686,6,6
		C136.908,238.791,134.222,241.478,130.908,241.478z"/>
</g>
</svg>
