<svg version="1.1" id="Icons" xmlns="http://www.w3.org/2000/svg" xmlns:xlink="http://www.w3.org/1999/xlink" x="0px" y="0px"
	 viewBox="0 0 313.92 313.92" style="enable-background:new 0 0 313.92 313.92;" xml:space="preserve">
<style type="text/css">
	.st0{fill:#FF9838;}
	.st1{fill:#B6BBBF;}
	.st2{fill:#888A8C;}
	.st3{fill:#00AEBD;}
</style>
<g>
	<path class="st2" d="M235.729,137.714c2.14-0.348,4.301-0.523,6.421-0.523c8.86,0,17.052,2.918,23.666,7.841
		c9.461-1.179,18.847-4.226,27.623-9.293c6.827-3.941,12.779-8.814,17.795-14.363c1.731-1.916,0.36-4.941-2.198-4.941
		c-0.026,0-0.052,0.001-0.078,0.002c-0.577,0.014-1.158,0.02-1.735,0.02c-25.402,0-50.106-13.178-63.721-36.758
		c-13.924-24.116-12.624-52.841,0.912-75.057c1.239-2.033-0.275-4.511-2.489-4.511c-0.211,0-0.429,0.023-0.65,0.07
		c-7.333,1.572-14.547,4.302-21.39,8.259c-24.334,14.076-37.608,40.981-36.348,67.748c4.434,1.739,8.698,3.908,12.726,6.495
		c-3.968-24.257,6.893-50.146,28.694-63.302c-6.298,21.994-3.602,45.937,8.152,66.297c7.644,13.238,18.684,24.189,31.932,31.671
		c6.736,3.804,13.952,6.668,21.42,8.531c-9.109,5.04-19.353,7.698-29.704,7.698l-19.516,3.883L235.729,137.714z"/>
	<g>
		<g>
			<path class="st1" d="M156.96,77.161c16.031,0,31.526,5.768,43.632,16.239c11.988,10.371,19.913,24.655,22.314,40.222
				l1.845,11.954l11.939-1.939c1.824-0.296,3.66-0.446,5.459-0.446c18.593,0,33.719,15.126,33.719,33.719
				s-15.126,33.719-33.719,33.719H91.889c-29.566,0-53.62-24.055-53.62-53.621s24.054-53.62,53.62-53.62
				c1.626,0,3.277,0.08,5.048,0.245l6.056,0.564l4.036-4.55C119.702,85.356,137.901,77.161,156.96,77.161 M156.96,65.161
				c-23.446,0-44.485,10.261-58.909,26.522c-2.029-0.189-4.083-0.297-6.162-0.297c-36.241,0-65.62,29.379-65.62,65.62
				s29.379,65.621,65.62,65.621h150.261c25.25,0,45.719-20.47,45.719-45.719s-20.469-45.719-45.719-45.719
				c-2.515,0-4.979,0.211-7.383,0.602C228.943,94.055,196.327,65.161,156.96,65.161L156.96,65.161z"/>
		</g>
	</g>
</g>
</svg>
