<svg version="1.1" id="Icons" xmlns="http://www.w3.org/2000/svg" xmlns:xlink="http://www.w3.org/1999/xlink" x="0px" y="0px"
	 viewBox="0 0 313.92 313.92" style="enable-background:new 0 0 313.92 313.92;" xml:space="preserve">
<style type="text/css">
	.st0{fill:#FF9838;}
	.st1{fill:#B6BBBF;}
	.st2{fill:#888A8C;}
	.st3{fill:#00AEBD;}
</style>
<g>
	<path class="st2" d="M91.359,104.053c0.52-2.539,1.114-5.073,1.798-7.597c4.044-14.932,10.727-28.696,19.859-40.914
		c9.44-12.628,21.069-22.988,34.561-30.793c6.289-3.638,12.851-6.677,19.621-9.091c-15.799,34.108-17.428,72.969-4.794,108.084
		c5.171,0.614,10.087,2.068,14.598,4.241c-17.565-39.878-13.577-84.837,8.091-120.396c2.199-3.609-0.488-8.005-4.416-8.005
		c-0.375,0-0.761,0.039-1.155,0.124c-13.01,2.79-25.811,7.633-37.952,14.655c-35.387,20.469-57.613,56.229-63.251,94.612
		C82.446,106.804,86.827,105.156,91.359,104.053z"/>
	<path class="st2" d="M299.755,205.947c-0.046,0-0.091,0-0.137,0.001c-1.025,0.024-2.056,0.036-3.079,0.036
		c-34.602,0-68.462-13.793-93.261-39.125c0.065,1.007,0.11,2.02,0.11,3.042c0,4.179-0.564,8.228-1.602,12.083
		c7.496,6.672,15.689,12.566,24.476,17.528c17.658,9.972,37.291,16.064,57.426,17.89c-5.454,4.639-11.34,8.787-17.605,12.404
		c-18.002,10.393-38.435,15.887-59.088,15.887c-20.567,0-40.892-5.375-58.775-15.545c-6.909-3.929-13.381-8.541-19.328-13.751
		h-17.243c24.967,26.716,59.772,41.296,95.347,41.296c22.128,0,44.546-5.635,65.088-17.494
		c12.112-6.993,22.675-15.639,31.573-25.485C306.729,211.314,304.295,205.947,299.755,205.947z"/>
</g>
<g>
	<g>
		<path class="st1" d="M104.727,108.425c14.561,0,28.466,6.262,38.15,17.18l4.035,4.55l6.055-0.564
			c1.344-0.125,2.592-0.186,3.816-0.186c22.33,0,40.497,18.167,40.497,40.497c0,22.329-18.167,40.496-40.497,40.496H36.575
			C23.024,210.398,12,199.373,12,185.822s11.024-24.574,24.575-24.574c1.31,0,2.649,0.109,3.983,0.326l11.938,1.938l1.845-11.954
			c1.834-11.89,7.89-22.803,17.05-30.727C80.64,112.83,92.479,108.425,104.727,108.425 M104.727,96.425
			c-31.494,0-57.587,23.115-62.245,53.305c-1.923-0.312-3.895-0.481-5.906-0.481C16.375,149.248,0,165.623,0,185.822
			c0,20.2,16.375,36.575,36.575,36.575h120.208c28.993,0,52.497-23.503,52.497-52.496s-23.504-52.497-52.497-52.497
			c-1.663,0-3.306,0.087-4.929,0.238C140.315,104.633,123.483,96.425,104.727,96.425L104.727,96.425z"/>
	</g>
</g>
<g>
	<path class="st3" d="M58.216,313.904c-1.052,0-2.116-0.276-3.083-0.857c-2.841-1.706-3.761-5.393-2.055-8.232l39.897-66.426
		c1.706-2.842,5.393-3.761,8.232-2.055c2.841,1.706,3.761,5.393,2.055,8.232l-39.897,66.426
		C62.24,312.866,60.253,313.904,58.216,313.904z"/>
</g>
<g>
	<path class="st3" d="M34.732,287.672c-1.052,0-2.116-0.276-3.083-0.857c-2.841-1.706-3.761-5.393-2.055-8.232l24.141-40.193
		c1.706-2.842,5.393-3.761,8.233-2.055c2.841,1.706,3.761,5.393,2.055,8.232L39.882,284.76
		C38.757,286.634,36.77,287.672,34.732,287.672z"/>
</g>
<g>
	<path class="st3" d="M111.752,287.672c-1.052,0-2.116-0.276-3.083-0.857c-2.841-1.706-3.761-5.393-2.055-8.232l16.072-26.76
		c1.706-2.842,5.394-3.762,8.232-2.055c2.841,1.706,3.761,5.393,2.055,8.232l-16.072,26.76
		C115.776,286.634,113.789,287.672,111.752,287.672z"/>
</g>
</svg>
