<svg version="1.1" id="Icons" xmlns="http://www.w3.org/2000/svg" xmlns:xlink="http://www.w3.org/1999/xlink" x="0px" y="0px"
	 viewBox="0 0 313.92 313.92" style="enable-background:new 0 0 313.92 313.92;" xml:space="preserve">
<style type="text/css">
	.st0{fill:#FF9838;}
	.st1{fill:#B6BBBF;}
	.st2{fill:#888A8C;}
	.st3{fill:#00AEBD;}
</style>
<g>
	<path class="st2" d="M309.33,104.862c-0.023,0-0.046,0-0.07,0.001c-0.52,0.012-1.043,0.018-1.563,0.018
		c-22.875,0-45.121-11.866-57.38-33.101c-12.538-21.717-11.368-47.583,0.821-67.588c1.116-1.831-0.248-4.062-2.241-4.062
		c-0.191,0-0.386,0.02-0.587,0.063c-6.603,1.416-13.099,3.873-19.261,7.438c-22.238,12.863-34.235,37.624-32.688,62.078
		c2.843,1.832,5.572,3.863,8.155,6.098c2.234,1.934,4.328,3.999,6.295,6.167c-7.228-22.419,1.144-48.28,20.862-61.819
		c-4.699,19.271-1.966,39.93,8.25,57.626c10.168,17.612,26.758,30.353,45.825,35.944c-7.332,3.542-15.378,5.399-23.496,5.399
		c-3.446,0-6.913-0.332-10.305-0.987c-1.247-0.24-2.544-0.357-3.965-0.357c-4.695,0-10.136,1.34-15.897,2.759
		c-0.961,0.237-1.977,0.486-3.001,0.731l0.672,4.359l5.97-0.971c2.14-0.348,4.3-0.524,6.421-0.524
		c8.308,0,16.025,2.568,22.408,6.946c10.477-0.365,21.017-3.228,30.729-8.836c6.147-3.549,11.508-7.937,16.024-12.934
		C312.87,107.586,311.634,104.862,309.33,104.862z"/>
	<g>
		<g>
			<path class="st1" d="M156.96,64.105c16.031,0,31.526,5.768,43.631,16.239c11.988,10.371,19.914,24.655,22.315,40.222
				l1.844,11.954l11.94-1.939c1.824-0.296,3.66-0.446,5.459-0.446c18.592,0,33.718,15.126,33.718,33.719
				c0,18.592-15.126,33.719-33.718,33.719H91.889c-29.566,0-53.621-24.055-53.621-53.621S62.322,90.33,91.889,90.33
				c1.626,0,3.277,0.08,5.048,0.246l6.056,0.564l4.036-4.551C119.702,72.301,137.901,64.105,156.96,64.105 M156.96,52.105
				c-23.446,0-44.486,10.26-58.91,26.521c-2.029-0.188-4.083-0.297-6.162-0.297c-36.241,0-65.621,29.38-65.621,65.621
				s29.379,65.621,65.621,65.621h150.261c25.249,0,45.718-20.47,45.718-45.719c0-25.25-20.469-45.719-45.718-45.719
				c-2.515,0-4.979,0.211-7.383,0.602C228.944,80.999,196.327,52.105,156.96,52.105L156.96,52.105z"/>
		</g>
	</g>
</g>
<g>
	<path class="st3" d="M179.109,287.672c-1.051,0-2.116-0.276-3.084-0.857c-2.841-1.706-3.76-5.393-2.054-8.232l24.141-40.193
		c1.706-2.842,5.391-3.763,8.233-2.055c2.841,1.706,3.76,5.393,2.054,8.233l-24.141,40.193
		C183.133,286.634,181.146,287.672,179.109,287.672z"/>
</g>
<g>
	<path class="st3" d="M124.113,313.904c-1.051,0-2.116-0.276-3.084-0.857c-2.841-1.706-3.76-5.393-2.054-8.232l39.897-66.426
		c1.706-2.842,5.39-3.763,8.233-2.055c2.841,1.706,3.76,5.393,2.054,8.233l-39.897,66.426
		C128.137,312.866,126.15,313.904,124.113,313.904z"/>
</g>
<g>
	<path class="st3" d="M100.629,287.672c-1.051,0-2.116-0.276-3.083-0.857c-2.841-1.706-3.76-5.393-2.054-8.232l24.141-40.193
		c1.706-2.842,5.391-3.763,8.233-2.055c2.841,1.706,3.76,5.393,2.054,8.233l-24.141,40.193
		C104.653,286.634,102.667,287.672,100.629,287.672z"/>
</g>
</svg>
