<svg version="1.1" id="Icons" xmlns="http://www.w3.org/2000/svg" xmlns:xlink="http://www.w3.org/1999/xlink" x="0px" y="0px"
	 viewBox="0 0 313.92 313.92" style="enable-background:new 0 0 313.92 313.92;" xml:space="preserve">
<style type="text/css">
	.st0{fill:#FF9838;}
	.st1{fill:#B6BBBF;}
	.st2{fill:#888A8C;}
	.st3{fill:#00AEBD;}
</style>
<path class="st2" d="M78.327,108.915c5.651-38.36,27.874-74.095,63.243-94.554c12.141-7.023,24.941-11.865,37.952-14.655
	c0.395-0.085,0.781-0.124,1.156-0.124c3.928,0,6.614,4.396,4.415,8.004c-21.68,35.581-25.661,80.572-8.061,120.466
	c-4.516-2.193-9.44-3.667-14.622-4.295c-12.639-35.12-11.013-73.985,4.788-108.099c-6.77,2.414-13.332,5.453-19.621,9.091
	c-13.493,7.805-25.121,18.165-34.562,30.794c-9.134,12.217-15.815,25.982-19.86,40.913c-0.681,2.515-1.273,5.038-1.792,7.568
	C86.834,105.117,82.455,106.757,78.327,108.915z"/>
<path class="st0" d="M122.131,251.023c-1.064-1.882-3.06-3.045-5.222-3.045H87.536l26.939-44.853
	c1.706-2.841,0.787-6.526-2.054-8.232c-2.842-1.708-6.527-0.786-8.233,2.054L71.79,250.89c-1.706,2.84-0.787,6.526,2.054,8.232
	c0.817,0.49,1.704,0.751,2.593,0.824c0.006,0.001,0.013,0.001,0.019,0.001c0.157,0.014,0.314,0.032,0.471,0.032
	c0.021,0,0.043-0.004,0.064-0.005c0.021,0.001,0.041,0.004,0.062,0.004h29.253l-26.939,44.853c-1.706,2.839-0.787,6.526,2.054,8.232
	c0.967,0.581,2.032,0.857,3.084,0.857c2.038,0,4.024-1.037,5.149-2.911l32.398-53.941
	C123.166,255.214,123.196,252.905,122.131,251.023z"/>
<path class="st2" d="M299.755,205.947c-0.046,0-0.091,0-0.138,0.002c-1.025,0.023-2.055,0.036-3.079,0.036
	c-34.656,0-68.568-13.837-93.378-39.245c0.071,1.046,0.12,2.098,0.12,3.161c0,4.151-0.555,8.173-1.58,12.005
	c7.52,6.705,15.741,12.625,24.562,17.606c17.658,9.972,37.291,16.065,57.426,17.891c-5.454,4.638-11.34,8.786-17.605,12.403
	c-18.002,10.394-38.434,15.887-59.087,15.887c-20.567,0-40.892-5.375-58.775-15.544c-6.295-3.58-12.228-7.729-17.731-12.378
	c-1.039-0.877-2.344-1.374-3.704-1.374h-0.924c-0.847,0-1.662,0.197-2.404,0.544l-0.001-0.756c0,0-6.906-2.188-7.531,0.188
	c-0.552,2.098,2.601,6.787,6.132,9.965c0.033,0.029,0.057,0.064,0.091,0.093c0.122,0.104,0.247,0.205,0.37,0.31
	c0.126,0.107,0.253,0.213,0.38,0.316c23.656,19.904,53.59,30.637,84.098,30.637c22.128,0,44.546-5.635,65.087-17.494
	c12.113-6.993,22.675-15.639,31.574-25.485C306.729,211.313,304.296,205.947,299.755,205.947z"/>
<path class="st1" d="M156.783,117.404c-1.663,0-3.306,0.087-4.929,0.238c-11.538-13.01-28.371-21.218-47.127-21.218
	c-31.494,0-57.587,23.115-62.245,53.305c-1.923-0.312-3.895-0.481-5.906-0.481c-19.962,0-36.188,15.991-36.568,35.861
	c-0.392,20.505,16.782,37.288,37.29,37.288h34.011c2.107,0,4.059-1.105,5.144-2.91l0,0c2.402-3.999-0.479-9.09-5.144-9.09H37.134
	c-13.749,0-25.363-11.25-25.13-24.997c0.226-13.356,11.161-24.152,24.571-24.152c1.309,0,2.649,0.109,3.982,0.326l11.94,1.939
	l1.844-11.954c1.835-11.892,7.89-22.804,17.05-30.728c9.248-8,21.087-12.406,33.335-12.406c14.561,0,28.466,6.262,38.15,17.181
	l4.036,4.55l6.056-0.564c1.342-0.126,2.59-0.187,3.815-0.187c22.655,0,41.024,18.699,40.485,41.473
	c-0.523,22.108-19.131,39.52-41.245,39.52H121.83c-2.106,0-4.059,1.105-5.144,2.911l0,0c-2.402,3.999,0.479,9.089,5.144,9.089
	h34.089c28.788,0,52.872-22.815,53.353-51.599C209.763,141.395,186.075,117.404,156.783,117.404z"/>
</svg>
