<svg version="1.1" id="Icons" xmlns="http://www.w3.org/2000/svg" xmlns:xlink="http://www.w3.org/1999/xlink" x="0px" y="0px"
	 viewBox="0 0 313.92 313.92" style="enable-background:new 0 0 313.92 313.92;" xml:space="preserve">
<style type="text/css">
	.st0{fill:#FF9838;}
	.st1{fill:#B6BBBF;}
	.st2{fill:#888A8C;}
	.st3{fill:#00AEBD;}
</style>
<path class="st2" d="M309.33,104.862c-0.023,0-0.046,0-0.069,0.001c-0.521,0.012-1.044,0.018-1.564,0.018
	c-22.875,0-45.121-11.866-57.38-33.101c-12.538-21.717-11.368-47.583,0.821-67.588c1.115-1.831-0.248-4.062-2.241-4.062
	c-0.19,0-0.386,0.02-0.587,0.063c-6.603,1.416-13.099,3.873-19.261,7.438c-22.237,12.863-34.235,37.624-32.688,62.078
	c2.843,1.832,5.572,3.863,8.155,6.098c2.234,1.933,4.328,3.999,6.295,6.167c-7.229-22.42,1.144-48.28,20.862-61.819
	c-4.699,19.271-1.967,39.93,8.25,57.626c10.168,17.612,26.758,30.353,45.825,35.944c-7.332,3.542-15.378,5.399-23.496,5.399
	c-3.445,0-6.912-0.332-10.305-0.987c-1.247-0.24-2.544-0.357-3.965-0.357c-4.695,0-10.137,1.34-15.897,2.759
	c-0.961,0.237-1.976,0.486-3.001,0.731l0.673,4.359l5.97-0.971c2.14-0.348,4.301-0.524,6.421-0.524
	c8.308,0,16.025,2.568,22.408,6.946c10.477-0.365,21.017-3.228,30.729-8.836c6.147-3.549,11.508-7.937,16.024-12.934
	C312.87,107.586,311.635,104.862,309.33,104.862z"/>
<path class="st1" d="M242.15,118.135c-2.515,0-4.98,0.211-7.383,0.602c-5.823-37.737-38.439-66.631-77.807-66.631
	c-23.446,0-44.486,10.26-58.909,26.521c-2.03-0.188-4.083-0.297-6.162-0.297c-36.531,0-66.09,29.852-65.615,66.492
	c0.468,36.061,30.529,64.75,66.593,64.75h37.776c2.106,0,4.059-1.105,5.144-2.911l0,0c2.402-3.999-0.479-9.089-5.144-9.089H92.703
	c-29.425,0-53.979-23.366-54.428-52.788C37.817,114.838,62.045,90.33,91.889,90.33c1.626,0,3.277,0.08,5.048,0.246l6.055,0.564
	l4.036-4.551c12.674-14.289,30.873-22.484,49.932-22.484c16.031,0,31.526,5.768,43.632,16.239
	c11.988,10.371,19.913,24.655,22.314,40.222l1.845,11.954l11.94-1.939c1.823-0.296,3.66-0.446,5.459-0.446
	c18.397,0,33.401,14.811,33.714,33.135c0.321,18.863-15.52,34.303-34.386,34.303H188.97c-2.106,0-4.059,1.104-5.144,2.91l0,0
	c-2.402,3.999,0.478,9.09,5.144,9.09h52.427c25.071,0,46.046-19.869,46.465-44.938C288.289,139.027,267.659,118.135,242.15,118.135z
	"/>
<path class="st0" d="M182.237,238.522c-1.064-1.882-3.059-3.045-5.222-3.045h-29.374l34.438-57.337
	c1.706-2.84,0.786-6.526-2.055-8.232c-2.839-1.706-6.526-0.786-8.232,2.055l-39.897,66.426c-1.706,2.84-0.787,6.526,2.054,8.232
	c0.817,0.491,1.704,0.752,2.594,0.825c0.006,0.001,0.013,0.001,0.019,0.001c0.157,0.013,0.314,0.031,0.471,0.031
	c0.022,0,0.043-0.004,0.065-0.004c0.021,0,0.041,0.003,0.062,0.003h29.253l-34.438,57.337c-1.706,2.84-0.787,6.526,2.054,8.232
	c0.967,0.581,2.032,0.857,3.083,0.857c2.038,0,4.024-1.038,5.149-2.912l39.897-66.426
	C183.272,242.713,183.303,240.404,182.237,238.522z"/>
</svg>
