<svg version="1.1" id="Icons" xmlns="http://www.w3.org/2000/svg" xmlns:xlink="http://www.w3.org/1999/xlink" x="0px" y="0px"
	 viewBox="0 0 313.92 313.92" style="enable-background:new 0 0 313.92 313.92;" xml:space="preserve">
<style type="text/css">
	.st0{fill:#FF9838;}
	.st1{fill:#B6BBBF;}
	.st2{fill:#888A8C;}
	.st3{fill:#00AEBD;}
</style>
<g>
	<path class="st2" d="M309.33,104.862c-0.023,0-0.046,0-0.069,0.001c-0.521,0.012-1.043,0.018-1.563,0.018
		c-22.875,0-45.12-11.866-57.38-33.101c-12.538-21.717-11.368-47.583,0.821-67.588c1.116-1.831-0.248-4.062-2.241-4.062
		c-0.19,0-0.387,0.02-0.587,0.063c-6.603,1.416-13.099,3.873-19.26,7.438c-22.238,12.863-34.235,37.624-32.688,62.077
		c2.843,1.833,5.572,3.864,8.155,6.099c2.234,1.933,4.328,3.999,6.295,6.167c-7.228-22.42,1.143-48.279,20.862-61.819
		c-4.698,19.271-1.967,39.93,8.25,57.626c10.168,17.612,26.759,30.353,45.825,35.944c-7.332,3.542-15.377,5.399-23.496,5.399
		c-3.445,0-6.912-0.332-10.305-0.987c-1.247-0.24-2.544-0.357-3.965-0.357c-4.695,0-10.137,1.34-15.896,2.759
		c-0.962,0.237-1.977,0.486-3.002,0.731l0.673,4.359l5.97-0.971c2.14-0.348,4.301-0.524,6.421-0.524
		c8.308,0,16.024,2.568,22.408,6.946c10.477-0.365,21.017-3.228,30.729-8.836c6.147-3.549,11.508-7.937,16.024-12.934
		C312.87,107.586,311.635,104.862,309.33,104.862z"/>
	<g>
		<g>
			<path class="st1" d="M156.96,64.105c16.031,0,31.526,5.768,43.632,16.239c11.988,10.371,19.913,24.655,22.314,40.222
				l1.845,11.954l11.939-1.939c1.824-0.296,3.66-0.446,5.459-0.446c18.593,0,33.719,15.126,33.719,33.719
				c0,18.592-15.126,33.719-33.719,33.719H91.889c-29.566,0-53.62-24.055-53.62-53.621S62.322,90.33,91.889,90.33
				c1.626,0,3.277,0.08,5.049,0.246l6.055,0.564l4.036-4.551C119.702,72.301,137.901,64.105,156.96,64.105 M156.96,52.105
				c-23.446,0-44.485,10.26-58.909,26.521c-2.029-0.188-4.083-0.297-6.162-0.297c-36.241,0-65.62,29.38-65.62,65.621
				s29.379,65.621,65.62,65.621h150.261c25.25,0,45.719-20.47,45.719-45.719c0-25.25-20.469-45.719-45.719-45.719
				c-2.515,0-4.979,0.211-7.383,0.602C228.944,80.999,196.327,52.105,156.96,52.105L156.96,52.105z"/>
		</g>
	</g>
</g>
<path class="st3" d="M188.503,286.062l-19.758-11.364l19.722-11.429c2.866-1.661,3.844-5.333,2.183-8.2
	c-1.661-2.866-5.331-3.844-8.2-2.183l-19.722,11.429l-0.037-22.794c-0.006-3.31-2.69-5.99-6-5.99c-0.003,0-0.007,0-0.01,0
	c-3.313,0.005-5.995,2.696-5.99,6.01l0.037,22.793l-19.759-11.364c-2.872-1.651-6.54-0.662-8.192,2.21
	c-1.652,2.872-0.663,6.54,2.21,8.192l19.758,11.364l-19.722,11.43c-2.866,1.661-3.844,5.333-2.183,8.2
	c1.113,1.92,3.127,2.992,5.197,2.992c1.021,0,2.056-0.261,3.003-0.81l19.721-11.429l0.037,22.794c0.006,3.311,2.69,5.99,6,5.99
	c0.003,0,0.007,0,0.01,0c3.313-0.005,5.995-2.696,5.99-6.01l-0.037-22.795l19.76,11.365c0.942,0.542,1.971,0.8,2.985,0.8
	c2.077,0,4.097-1.08,5.207-3.01C192.365,291.383,191.376,287.715,188.503,286.062z"/>
<path class="st3" d="M91.619,276.364l-14.11-8.147l14.11-8.146c2.87-1.657,3.853-5.326,2.196-8.196
	c-1.655-2.869-5.325-3.852-8.196-2.196l-14.111,8.147v-16.294c0-3.314-2.687-6-6-6c-3.313,0-6,2.686-6,6v16.293l-14.11-8.146
	c-2.871-1.658-6.539-0.673-8.196,2.196c-1.656,2.87-0.674,6.539,2.196,8.196l14.11,8.146l-14.11,8.147
	c-2.87,1.657-3.853,5.326-2.196,8.196c1.111,1.925,3.128,3.001,5.202,3.001c1.018,0,2.05-0.26,2.994-0.805l14.11-8.147v16.294
	c0,3.313,2.687,6,6,6c3.313,0,6-2.687,6-6v-16.295l14.111,8.147c0.945,0.546,1.977,0.805,2.994,0.805
	c2.074,0,4.091-1.076,5.202-3.001C95.472,281.69,94.489,278.021,91.619,276.364z"/>
<path class="st3" d="M274.493,276.364l-14.11-8.147l14.11-8.146c2.87-1.657,3.853-5.326,2.196-8.196
	c-1.656-2.869-5.327-3.852-8.196-2.196l-14.11,8.146v-16.293c0-3.314-2.686-6-6-6c-3.313,0-6,2.686-6,6v16.294l-14.111-8.147
	c-2.872-1.658-6.539-0.673-8.196,2.196c-1.656,2.87-0.674,6.539,2.196,8.196l14.111,8.146l-14.111,8.147
	c-2.87,1.657-3.853,5.326-2.196,8.196c1.111,1.925,3.128,3.001,5.202,3.001c1.018,0,2.05-0.26,2.994-0.805l14.111-8.147v16.295
	c0,3.313,2.687,6,6,6c3.314,0,6-2.687,6-6V278.61l14.11,8.147c0.945,0.546,1.977,0.805,2.994,0.805c2.074,0,4.091-1.076,5.202-3.001
	C278.346,281.69,277.363,278.021,274.493,276.364z"/>
</svg>
